<svg version="1.1" id="Layer_1" xmlns="http://www.w3.org/2000/svg" xmlns:xlink="http://www.w3.org/1999/xlink" x="0px" y="0px" viewBox="0 0 855.5 260.6" style="enable-background:new 0 0 855.5 260.6;" xml:space="preserve">
<style type="text/css">
	.st0{fill:#FFFFFF;}
</style>
<path class="st0" d="M113.7,150c-13.4,11.9-34.4,21.5-50.1,21.5c-11.9,0-20.6-5.5-20.6-19.8c0-3.2,0.3-6.4,0.9-9.6
	c-2.4,0.2-4.8,0.4-7.2,0.4c-13.6,0-30-4.2-30-22.3c0-14.9,22.1-39.9,63.5-39.9c6.5,0,12.3,0.6,17.4,1.4c15-10.7,31.4-17.6,45-17.6
	c10,0,14,4.4,14,11.1c0,20.8-41.6,64.9-64,64.9c-6,0-8.5-2.4-8.6-6.4c-8.2,3.7-17.4,6.7-26.9,8.1c-1.2,3.6-1.9,7-1.9,10
	c0,13.2,8,18.2,18.8,18.2c15.4,0,36.5-10,48.9-21l16.9-15l0.7,1L113.7,150z M44.2,140.9c4.6-21.7,22-43.4,42.1-58.2
	c-4.7-0.7-10-1.2-16-1.2c-40.7,0-62.3,24.3-62.3,38.7c0,17.1,15.6,21.1,28.7,21.1C39.3,141.2,41.8,141.1,44.2,140.9z M47.7,140.5
	c9.5-1.4,18.5-4.4,26.4-8.1c0.7-13.4,16.5-32.6,32-44.4c-3.3-1.4-7.5-2.8-12.5-4C73.5,99.9,54.3,123,47.7,140.5z M94.9,83
	c5,1.2,9.1,2.7,12.4,4.2c7.9-5.9,15.8-9.7,21.5-9.7c2.2,0,3.4,1.2,3.4,3.2c0,11.4-25.6,33.5-40.3,43.2c-4.6,3.1-10.2,6.2-16.5,9.2
	c0,0.1,0,0.2,0,0.3c0,3.4,2.2,5.4,7.4,5.4c22,0,62.8-43.3,62.8-63.7c0-6-3.7-9.9-12.7-9.9C122.2,65.2,108.4,72.5,94.9,83z
	 M75.5,131.8c5.9-2.8,11.1-5.9,15.6-8.9c14.2-9.5,39.8-31.1,39.8-42.2c0-1.2-0.6-2-2.1-2c-4,0-10.7,4.1-18.2,10
	c4.6,2.3,6.8,4.2,6.8,4.2l-0.7,1c0,0-2.4-1.9-7.1-4.4C94.5,101.9,77.3,121.6,75.5,131.8z M63.6,171.8c-17.3,0-20.9-10.9-20.9-20.1
	c0-3.1,0.3-6.1,0.9-9.2c-2.2,0.2-4.5,0.3-6.8,0.3c-26.3,0-30.3-14.2-30.3-22.7c0-14.5,21.3-40.3,63.9-40.3c5.8,0,11.6,0.5,17.3,1.4
	c15.7-11.2,32.1-17.6,45.1-17.6c9.5,0,14.3,3.8,14.3,11.4c0,9.8-9.3,25.7-23.7,40.5c-11.6,12-28.4,24.7-40.7,24.7
	c-5.6,0-8.6-2.1-8.9-6.2c-9,4-17.9,6.7-26.4,7.9c-1.2,3.6-1.9,6.9-1.9,9.7c0,14.7,10.1,17.8,18.5,17.8c16.3,0,37.3-10.8,48.7-21
	l17.1-15.2l1.1,1.5l-17.2,15.3C99.8,162.7,78.6,171.8,63.6,171.8z M44.3,141.7l-0.1,0.4c-0.6,3.3-0.9,6.4-0.9,9.5
	c0,16.1,11,19.5,20.3,19.5c14.9,0,35.8-9,49.8-21.5l16.8-14.9l-0.4-0.5l-16.6,14.7c-11.5,10.2-32.6,21.1-49.1,21.1
	c-15.8,0-19.2-10.1-19.2-18.5c0-2.9,0.7-6.3,2-10.1l0.1-0.2l0.2,0c8.6-1.2,17.7-4,26.8-8.1l0.4-0.2l0,0.5c0.1,4.1,2.8,6,8.3,6
	c10.1,0,25.5-9.4,40.2-24.5c14.3-14.7,23.5-30.5,23.5-40c0-7.2-4.6-10.8-13.7-10.8c-12.9,0-29.2,6.4-44.8,17.5l-0.1,0.1l-0.1,0
	C82,81,76.1,80.5,70.3,80.5c-42.1,0-63.2,25.4-63.2,39.6c0,19.2,18.6,22,29.6,22c2.4,0,4.8-0.1,7.1-0.4L44.3,141.7z M36.8,141.6
	c-10.8,0-29-2.8-29-21.4c0-14,20.9-39,62.6-39c5.6,0,11,0.4,16,1.2l0.8,0.1l-0.6,0.5c-21.7,16-37.8,38.2-42,58l0,0.2l-0.2,0
	C41.8,141.4,39.3,141.6,36.8,141.6z M70.3,81.8c-41.3,0-62,24.6-62,38.4c0,18.1,17.8,20.8,28.4,20.8c2.4,0,4.8-0.1,7.2-0.3
	c4.4-20,19.9-41.6,41.6-57.7C80.7,82.1,75.7,81.8,70.3,81.8z M47.2,140.9l0.2-0.5c6.4-16.9,25.3-40.2,46-56.6l0.1-0.1l0.2,0
	c4.5,1,8.7,2.4,12.6,4l0.5,0.2l-0.4,0.3c-14.9,11.3-31.1,30.6-31.9,44.2l0,0.2l-0.2,0.1c-8.9,4.1-17.9,6.8-26.5,8.1L47.2,140.9z
	 M93.6,84.4c-20.4,16.2-38.9,39-45.5,55.7c8.3-1.3,16.9-3.9,25.6-7.9c0.9-13.6,16.9-32.8,31.7-44.1C101.8,86.6,97.8,85.3,93.6,84.4z
	 M82.7,139.1c-6.4,0-7.7-3.1-7.7-5.7v-0.5l0.2-0.1c5.9-2.8,11.6-5.9,16.4-9.2c13.6-8.9,40.2-31.4,40.2-42.9c0-1.9-1.1-2.9-3-2.9
	c-5.3,0-12.8,3.4-21.3,9.7l-0.2,0.1l-0.2-0.1c-3.5-1.6-7.7-3-12.4-4.2l-0.6-0.2l0.5-0.4c14.8-11.5,28.3-17.9,38.1-17.9
	c10.8,0,13.1,5.5,13.1,10.2C145.8,94.9,105.5,139.1,82.7,139.1z M75.7,133.3v0.1c0,3.3,2.4,5,7,5c9.9,0,25-9.2,39.4-24.1
	c14-14.5,23.1-29.9,23.1-39.2c0-6.3-4.2-9.5-12.4-9.5c-9.5,0-22.7,6.1-37.2,17.3c4.4,1.1,8.3,2.5,11.7,4c8.5-6.2,16.1-9.7,21.5-9.7
	c2.3,0,3.7,1.3,3.7,3.6c0,11.8-26.8,34.5-40.5,43.5C87.2,127.4,81.5,130.5,75.7,133.3z M75,132.3l0.1-0.6
	c1.8-10.3,19.2-30.1,34.2-42.4l0.2-0.1l0.2,0.1c3.9,2,6.2,3.6,6.9,4.2l0.4-0.5c-0.7-0.5-2.9-2.1-6.5-4l-0.4-0.2l0.4-0.3
	c5.7-4.6,13.6-10.1,18.4-10.1c1.6,0,2.4,0.8,2.4,2.3c0,11.8-27.4,34.1-40,42.5c-4.9,3.3-10.2,6.3-15.6,8.9L75,132.3z M109.6,89.9
	c-14.6,12-31.3,30.9-33.7,41.2c5.2-2.5,10.2-5.4,15-8.6c13.8-9.2,39.7-31,39.7-41.9c0-1.2-0.6-1.7-1.8-1.7c-3.5,0-9.8,3.4-17.6,9.7
	c4.2,2.2,6.3,3.9,6.4,4l0.2,0.2l-1.1,1.5l-0.3-0.2C116.4,94.2,114.1,92.3,109.6,89.9z M173.6,124.3c-28.5,37.8-28.5,38.2-28.5,38.6
	c0,1.2,0.6,1.7,1.7,1.7c5.5,0,15.4-7.6,24.3-15.6l17-15.1l0.7,1L172,150c-8.9,7.9-19.3,15.9-25.1,15.9c-1.9,0-3-0.7-3-3
	c0-4.2,3.5-11.7,6-15.2c2.1-3,6.2-8.4,10-13.4c-5.5,5.7-12.1,12.4-15.4,15.5c-5.1,4.8-18.7,16-24.8,16c-2.4,0-3.5-1.9-3.5-5.1
	c0-28.7,36.1-41.4,54.1-41.4c4.4,0,9.4,0.9,13.5,2.2l-0.5,1.2c-3.9-1.5-8.2-2.2-13-2.2c-17.6,0-52.8,24.1-52.8,40.2
	c0,2.1,0.7,3.9,2.2,3.9c5.7,0,19.3-11.2,24.1-15.7c5.6-5.2,20.6-20.8,23.5-23.8l0.6-0.8L173.6,124.3z M146.9,166.2
	c-2.2,0-3.3-1.1-3.3-3.3c0-4.4,3.6-11.9,6.1-15.4c1.4-2.1,3.9-5.3,6.6-8.9c-4,4.1-8.8,9-11.5,11.4c-4.4,4.2-18.6,16.1-25.1,16.1
	c-1.7,0-3.8-0.9-3.8-5.4c0-16.1,11.1-26.2,20.4-31.8c12.3-7.4,26-10,33.9-10c4.3,0,9.3,0.8,13.6,2.3l0.3,0.1l-0.7,1.9l-0.3-0.1
	c-3.8-1.5-8.1-2.2-12.9-2.2c-17.6,0-52.5,24.2-52.5,39.9c0,1.6,0.5,3.5,1.9,3.5c5.5,0,18.7-10.7,23.9-15.6
	c6.2-5.8,23.3-23.6,23.5-23.8l0.7-0.9l6.5,0.1l-0.4,0.5c-23.4,31.1-28.3,37.9-28.4,38.4c0,1,0.4,1.4,1.4,1.4
	c4.4,0,12.5-5.2,24.1-15.5l17.2-15.3l1.1,1.5l-17.2,15.3C164,157.5,153,166.2,146.9,166.2z M159.7,134l0.5,0.4
	c-4,5.2-8,10.4-10,13.3c-2.4,3.5-5.9,10.8-5.9,15c0,1.9,0.8,2.7,2.7,2.7c5.9,0,16.8-8.6,24.9-15.8l16.8-14.9l-0.4-0.5l-16.7,14.9
	c-11.9,10.6-19.9,15.7-24.6,15.7c-1.4,0-2.1-0.7-2.1-2.1c0-0.5,0-0.9,28.1-38.3l-4.9-0.1l-0.5,0.7c-0.2,0.2-17.3,18-23.5,23.8
	c-5.2,5-18.6,15.8-24.3,15.8c-1.6,0-2.6-1.6-2.6-4.2c0-7.4,7.5-17.3,19.9-26.4c11.7-8.6,24.8-14.1,33.2-14.1c4.7,0,9,0.7,12.8,2.2
	l0.3-0.6c-4.1-1.3-9-2.1-13.1-2.1c-7.9,0-21.4,2.6-33.6,9.9c-9.2,5.5-20.1,15.4-20.1,31.2c0,3.2,1.1,4.8,3.2,4.8
	c5.8,0,19.1-10.7,24.6-15.9C147.9,146.1,155.5,138.4,159.7,134z M185.6,137.9l-1.1-0.6l3.7-3.4c3.2-2.9,6.4-6.2,9.2-9.3
	c-7.8,6.1-14.6,8.3-20.1,8.3c-12,0-17.4-5.5-17.4-12.4c0-10.5,13.1-24.1,34.8-24.1c6.8,0,14,1.6,21.1,3.6c3.2-4.4,6.1-8.1,8-11h7.4
	c-3.3,4.4-6.5,8.6-9.7,12.7l4.7,1.5c10,3.3,22.7,7,32.5,7c9.5,0,18.7-2.7,27.3-11l0.7,1c-8.9,8.5-18.3,11.2-28.1,11.2
	c-11,0-22-3.5-33-7l-5.1-1.6c-24,31.4-44,55.8-44,59.9c0,1.2,0.6,1.7,1.7,1.7c5.5,0,15.4-7.6,24.3-15.6l17-15.1l0.7,1l-17,15.1
	c-8.9,7.9-19.3,15.9-25.1,15.9c-1.9,0-3-0.7-3-3c0-5.4,8.2-18.4,18.2-32.5c-1.6,1.6-3.1,3.1-4.7,4.5L185.6,137.9z M215.1,101.2
	c-7-2-13.9-3.5-20.3-3.5c-21,0-33.6,12.9-33.6,22.8c0,6.1,4.9,11.1,16.1,11.1c6.4,0,14.6-3.2,24.2-12.2
	C206.3,112.9,211,106.7,215.1,101.2z M178.5,166.2c-2.2,0-3.3-1.1-3.3-3.3c0-4.4,5.1-13.9,16.2-29.7c-0.7,0.7-1.4,1.4-2.1,2
	l-3.5,3.1l-1.7-1l4.1-3.7c2.2-2,4.6-4.4,7-6.8c-6.1,4.2-12.2,6.4-17.6,6.4c-16.4,0-17.7-9.7-17.7-12.7c0-11.5,14.4-24.4,35.1-24.4
	c5.8,0,12.5,1.1,21,3.6l0.9-1.2c2.8-3.8,5.2-7.1,7-9.6l0.1-0.1h8.2l-2.9,3.9c-2.4,3.1-4.6,6.1-6.8,9l4.2,1.4c9.1,3,22.3,7,32.4,7
	c10.6,0,19.4-3.6,27.1-10.9l0.3-0.3l1.1,1.5l-0.2,0.2c-8,7.6-17.2,11.3-28.3,11.3c-11,0-22.2-3.6-33-7l-4.8-1.6
	c-5.8,7.6-11.5,14.9-16.5,21.4c-15.2,19.6-27.3,35.1-27.3,38.1c0,1,0.4,1.4,1.4,1.4c4.4,0,12.5-5.2,24.1-15.5l17.2-15.3l1.1,1.5
	l-17.2,15.3C195.6,157.5,184.6,166.2,178.5,166.2z M193.4,130.2l0.5,0.4c-12.2,17.2-18.1,27.8-18.1,32.3c0,1.9,0.8,2.7,2.7,2.7
	c5.9,0,16.8-8.6,24.9-15.8l16.8-14.9l-0.4-0.5L203,149.2c-11.9,10.6-19.9,15.7-24.6,15.7c-1.4,0-2.1-0.7-2.1-2.1
	c0-3.2,10.9-17.3,27.4-38.5c5.1-6.5,10.8-13.9,16.7-21.6l0.1-0.2l5.3,1.7c10.8,3.4,21.9,7,32.9,7c11,0,19.8-3.5,27.7-10.9l-0.4-0.5
	c-7.7,7.3-16.7,10.8-27.3,10.8c-10.1,0-23.4-4-32.6-7l-5.1-1.6l0.3-0.4c2.4-3,4.7-6.1,7.1-9.4l2.2-2.9h-6.5
	c-1.7,2.6-4.1,5.8-6.9,9.5l-1.1,1.5l-0.2-0.1c-8.5-2.5-15.2-3.6-21-3.6c-22.2,0-34.5,14.1-34.5,23.8c0,7.5,6.4,12,17,12
	c6.1,0,13-2.8,19.9-8.2l0.4,0.5c-3,3.3-6.3,6.6-9.3,9.3l-3.4,3.1l0.5,0.3l3.2-2.8C190.3,133.3,191.9,131.7,193.4,130.2z M177.4,132
	c-10.3,0-16.4-4.3-16.4-11.4c0-9.5,12.1-23.2,33.9-23.2c5.6,0,11.9,1.1,20.4,3.5l0.5,0.1l-0.4,0.5c-4.1,5.5-8.7,11.7-13.4,18.1
	C190.9,129.8,182.5,132,177.4,132z M194.8,98c-13.6,0-33.3,8-33.3,22.5c0,6.8,5.9,10.8,15.8,10.8c5,0,13.3-2.1,24-12.1
	c4.6-6.3,9.2-12.4,13.2-17.8C206.4,99,200.3,98,194.8,98z M230.4,164.6c5.5,0,15.4-7.6,24.3-15.6l17-15.1l0.7,1l-17,15.1
	c-8.9,7.9-19.3,15.9-25.1,15.9c-1.9,0-3-0.7-3-3c0-4.2,3.7-11.7,6-15.4c5.8-9.5,21.8-25.5,21.8-28.7c0-0.6-0.4-0.9-1-0.9
	c-7.8,0-29.4,21.8-42.1,35.2l-6.4,9.7h-7.7c0,0,12.7-14.8,25.3-30.6c-0.9,0.9-1.9,1.8-2.9,2.7l-3.4,3l-1.1-0.6l3.7-3.4
	c4.4-3.9,8.9-8.7,12-12.6c6.9-9.7,12.8-18.3,14.8-22c3.5-6.4,24.3-39.7,34.6-39.7c1.5,0,2.4,0.7,2.4,2.7c0,12.4-24,41.8-49.9,58.2
	l-17.5,26.6c12.9-13.3,30.8-30.5,38.1-30.5c1.6,0,2.2,0.7,2.2,1.9c0,13.6-27.8,39.4-27.8,44.3C228.7,164.1,229.3,164.6,230.4,164.6z
	 M235.5,118c24.4-16.4,46.9-43.8,46.9-55.6c0-1-0.4-1.5-1.1-1.5c-9.6,0-29.6,32.1-33.6,38.9c-1.9,3.2-5.6,8.7-10.1,15.2
	C236.8,116,236.1,117,235.5,118z M230.4,166.2c-2.2,0-3.3-1.1-3.3-3.3c0-4.5,4-12.1,6-15.5c2.8-4.5,7.9-10.6,12.4-15.9
	c4.8-5.7,9.4-11.1,9.4-12.7c0-0.3-0.1-0.5-0.7-0.5c-5.7,0-19.7,11.8-41.8,35.1l-6.4,9.8h-8.6l0.5-0.5c0.1-0.1,11.1-12.9,22.6-27.2
	l-3.2,2.8l-1.7-1l4.1-3.7c4.2-3.8,8.8-8.6,12-12.6c8.4-11.9,13-18.8,14.8-21.9c1.7-3.2,7.9-13.2,14.8-22.3
	c8.9-11.7,15.6-17.6,20.1-17.6c1.8,0,2.7,1,2.7,3.1c0,12-23.1,41.4-50,58.5l-15.6,23.7c18.6-19,30.4-28.2,36-28.2
	c2.2,0,2.6,1.4,2.6,2.2c0,8.6-11.1,22.1-19.1,32c-4.7,5.7-8.7,10.6-8.7,12.3c0,1,0.4,1.4,1.4,1.4c4.4,0,12.5-5.2,24.1-15.5
	l17.2-15.3l1.1,1.5l-17.2,15.3C247.5,157.5,236.5,166.2,230.4,166.2z M254.2,117.6c1.1,0,1.3,0.8,1.3,1.2c0,1.7-3.6,6.1-9.6,13.1
	c-4.5,5.3-9.6,11.3-12.3,15.8c-2.1,3.4-5.9,10.9-5.9,15.2c0,1.9,0.8,2.7,2.7,2.7c5.9,0,16.8-8.6,24.9-15.8l16.8-14.9l-0.4-0.5
	L255,149.2c-11.9,10.6-19.9,15.7-24.6,15.7c-1.4,0-2.1-0.7-2.1-2.1c0-1.9,3.7-6.5,8.9-12.7c8-9.8,19-23.2,19-31.6
	c0-0.7-0.2-1.5-1.9-1.5c-5.5,0-18.3,10.2-37.9,30.4l-0.5-0.4l17.6-26.7c26.8-17,49.8-46.1,49.8-58c0-1.7-0.6-2.4-2-2.4
	c-9.6,0-29.5,30.8-34.3,39.5c-1.7,3.1-6.4,10.1-14.8,22c-3.2,4-7.9,8.8-12.1,12.7l-3.4,3.1l0.5,0.3l3.2-2.8c0.3-0.3,0.6-0.6,0.9-0.9
	c0.6-0.6,1.3-1.2,1.9-1.8l0.5,0.4c-11.1,14-22.5,27.3-24.9,30.1h6.9l6.3-9.6C234.2,129.4,248.4,117.6,254.2,117.6z M234.2,119.2
	l1-1.4c0.3-0.5,0.7-1,1-1.5c0.3-0.5,0.7-1,1-1.5c5.2-7.6,8.4-12.4,10.1-15.2c0.2-0.4,23.1-39.1,33.9-39.1c0.5,0,1.4,0.2,1.4,1.8
	c0,12.3-23.3,40-47,55.9L234.2,119.2z M281.2,61.2c-3.9,0-10.4,5.8-18.7,16.8c-6.5,8.7-12.4,18.2-14.6,22
	c-1.7,2.8-4.9,7.7-10.1,15.2c-0.3,0.5-0.7,1-1,1.5c0,0,0,0,0,0c23.1-15.9,45.3-42.5,45.3-54.3C282,61.2,281.4,61.2,281.2,61.2z
	 M294.9,119.4c0,8.4-22.2,23.2-26.9,24.7c-5,7.2-8.7,13.9-8.7,17.4c0,2.5,1.9,3.2,4,3.2c1.6,0,3.4-0.5,4.6-1
	c5.6-2.3,13.3-8.4,20.5-14.7l17-15.1l0.7,1l-17,15.1c-7.1,6.3-15,12.5-20.8,14.9c-1.5,0.6-3.2,1-4.9,1c-3,0-5.6-1.4-5.6-5.6
	c0-19.8,25.6-42.7,35.2-42.7C294.3,117.5,294.9,118.5,294.9,119.4z M269.4,142.1c6.6-3.4,24.2-15.5,24.2-22.7c0-0.2-0.3-0.6-0.6-0.6
	c-0.1,0-0.3,0.1-0.4,0.1C288.6,119.2,277.7,130.8,269.4,142.1z M263.4,166.2c-3.8,0-5.9-2.1-5.9-5.9c0-19.6,25.5-43,35.5-43
	c1.4,0,2.2,1.1,2.2,2.2c0,8.5-21.8,23.2-27,24.9c-5.5,7.9-8.6,14-8.6,17.1c0,1.9,1.2,2.9,3.7,2.9c1.9,0,3.8-0.7,4.5-1
	c4.7-1.9,11.6-6.9,20.4-14.7l17.2-15.3l1.1,1.5l-17.2,15.3c-8.9,7.9-15.9,12.9-20.9,14.9C266.8,165.8,265.1,166.2,263.4,166.2z
	 M293,117.8c-9.9,0-34.9,23.1-34.9,42.4c0,4.4,2.9,5.3,5.3,5.3c1.6,0,3.2-0.3,4.7-1c4.9-2,11.9-7,20.8-14.8l16.8-14.9l-0.4-0.5
	l-16.7,14.9c-8.8,7.8-15.8,12.8-20.6,14.8c-0.8,0.3-2.8,1-4.7,1c-2.8,0-4.3-1.3-4.3-3.6c0-4.4,5.5-12.9,8.7-17.6l0.1-0.1l0.1,0
	c4.8-1.5,26.7-16.2,26.7-24.3C294.6,118.8,294.2,117.8,293,117.8z M268.4,143l0.8-1.1c7.9-11,19.2-23,23.5-23.4c0.1,0,0.1,0,0.1,0
	c0.1,0,0.2,0,0.3,0c0.5,0,0.9,0.5,0.9,0.9c0,7.3-17.7,19.6-24.4,23L268.4,143z M293,119.1c0,0-0.1,0-0.1,0c-0.1,0-0.2,0-0.3,0
	c-3.5,0.3-13.4,10.3-22.1,22c7.7-4.3,22.8-15.4,22.8-21.8C293.3,119.3,293.2,119.1,293,119.1z M302.8,137.9l-1.1-0.6l3.7-3.4
	c7.1-6.4,14.7-14.5,18.8-19.1c0-0.1,0-0.3,0-0.4c0-4.7,2.7-7,4.4-7c0.7,0,1.2,0.4,1.2,1.2c0,0.6-0.7,2.1-2.1,4l-2.4,2.9
	c0,0.3-0.1,0.6-0.1,0.9c0,2.3,0.4,5,0.4,6.1c0,11.7-18.7,27.5-25.6,39.4c0,1.1,0.7,1.6,2,1.6c5.6,0,16.4-6.7,25.1-14.5l17-15.1
	l0.8,1L328,150c-8.9,7.9-20,14.7-25.8,14.7c-2,0-3.2-0.7-3.2-3c0-16.4,25.1-35.6,25.1-39.6c0-0.4,0.1-5.4,0.1-5.4
	c-4.4,4.9-11.5,12.2-18,18.1L302.8,137.9z M302.1,165c-2.4,0-3.6-1.1-3.6-3.3c0-11.1,11.3-23.4,18.8-31.5c3.4-3.7,6.3-6.9,6.3-8.1
	c0-0.3,0.1-3.1,0.1-4.5c-4.1,4.6-10.9,11.6-17.4,17.5l-3.5,3.2l-1.7-1l4.1-3.7c6.8-6.2,14.3-14.1,18.7-19v-0.3
	c0-4.8,2.8-7.3,4.8-7.3c0.9,0,1.5,0.6,1.5,1.5c0,0.7-0.8,2.3-2.2,4.2l-2.3,2.8c0,0.1,0,0.2,0,0.4c0,0.1,0,0.3,0,0.4
	c0,1.3,0.2,2.8,0.3,4c0.1,0.9,0.2,1.6,0.2,2.1c0,7.6-7.6,16.7-15,25.5c-4.2,5-8.1,9.7-10.6,14c0,0.5,0.2,1.2,1.7,1.2
	c5.1,0,15.3-5.9,24.9-14.4l17.2-15.3l1.1,1.5l-17.2,15.3C320.2,157.4,308.6,165,302.1,165z M324.5,115.9l0,0.9c0,0-0.1,4.9-0.1,5.4
	c0,1.4-2.6,4.3-6.5,8.5c-7.4,8.1-18.6,20.2-18.6,31c0,1.9,0.9,2.7,2.9,2.7c6,0,17.4-7.4,25.6-14.6l16.8-14.9l-0.4-0.5l-16.7,14.9
	c-7.9,7-19.2,14.6-25.3,14.6c-2,0-2.3-1.2-2.3-1.9v-0.1l0-0.1c2.5-4.4,6.5-9.1,10.7-14.2c7.3-8.7,14.9-17.8,14.9-25.1
	c0-0.4-0.1-1.2-0.2-2c-0.1-1.2-0.3-2.7-0.3-4.1c0-0.2,0-0.3,0-0.5c0-0.1,0-0.3,0-0.4v-0.1l2.4-3c1.4-1.9,2-3.3,2-3.8
	c0-0.6-0.3-0.9-0.9-0.9c-1.4,0-4.1,2-4.1,6.7v0.6l-0.1,0.1c-4.4,4.9-12,12.9-18.9,19.1l-3.4,3.1l0.5,0.3l3.2-2.8
	c6.8-6.1,13.9-13.6,17.9-18.1L324.5,115.9z M344.2,133.9c3.9-3.5,7.9-7.6,10.9-11.2c1.1-1.3,1.7-2.1,1.7-2.1h5.7
	c-28.5,37.8-31.3,41.9-31.3,42.3c0,1.2,0.6,1.7,1.7,1.7c5.5,0,15.4-7.6,24.3-15.6l17-15.1l0.7,1l-17,15.1
	c-8.9,7.9-19.3,15.9-25.1,15.9c-1.9,0-3-0.7-3-3c0-4.2,3.5-11.7,6-15.2c2-2.9,6.6-8.9,10.9-14.5c-0.6,0.6-1.2,1.2-1.9,1.7l-3.4,3
	l-1.1-0.6L344.2,133.9z M378,95.8l-0.7-0.2l4-6.4h5.5L378,95.8z M333,166.2c-2.2,0-3.3-1.1-3.3-3.3c0-4.4,3.6-11.9,6-15.4
	c1.7-2.4,5.2-7.1,8.6-11.5l-2.7,2.4l-1.7-1l4.1-3.7c4.1-3.7,8-7.8,10.9-11.2c1.1-1.3,1.7-2.1,1.7-2.1l0.1-0.1h6.6l-0.4,0.5
	c-25.7,34.1-31.1,41.5-31.3,42.2c0,1,0.4,1.4,1.4,1.4c4.4,0,12.5-5.2,24.1-15.5l17.2-15.3l1.1,1.5l-17.2,15.3
	C350.1,157.5,339.1,166.2,333,166.2z M346.6,132.9l0.5,0.4c-4,5.2-8.8,11.5-10.9,14.5c-2.4,3.5-5.9,10.8-5.9,15
	c0,1.9,0.8,2.7,2.7,2.7c5.9,0,16.8-8.6,24.9-15.8l16.8-14.9l-0.4-0.5l-16.7,14.9c-11.9,10.6-19.9,15.7-24.6,15.7
	c-1.4,0-2.1-0.7-2.1-2.1c0-0.4,0-0.8,31-42H357c-0.2,0.3-0.8,1-1.6,2c-2.9,3.5-6.9,7.6-11,11.3h0l-3.4,3.1l0.5,0.3l3.2-2.8
	C345.4,134.1,346,133.5,346.6,132.9z M378.1,96.2l-1.3-0.4l4.3-6.9h6.6L378.1,96.2z M377.8,95.4l0.2,0.1l7.8-5.9h-4.3L377.8,95.4z
	 M374.3,133.9c4.4-4,16.6-15.2,21.2-15.2c1,0,1.7,0.6,1.7,2.1c0,5.4-6.6,16.4-16.1,30.6c13.4-14.1,33.3-34.6,41-34.6
	c1.6,0,2.2,0.7,2.2,1.9c0,14-27.8,38.6-27.8,44.3c0,1.2,0.6,1.7,1.7,1.7c5.5,0,15.4-7.6,24.3-15.6l17-15.1l0.7,1l-17,15.1
	c-8.9,7.9-19.3,15.9-25.1,15.9c-1.9,0-3-0.7-3-3c0-15.6,27.8-40.1,27.8-44.1c0-0.6-0.4-0.9-1-0.9c-8.5,0-33.2,26.5-45.1,39.4
	l-3.8,5.5h-7.7c4.7-7,29.7-36.3,29.7-41.9c0-0.6-0.2-0.9-0.7-0.9c-3.1,0-13.1,9.4-19.3,14.9l-3.4,3l-1.1-0.6L374.3,133.9z
	 M398.3,166.2c-2.2,0-3.3-1.1-3.3-3.3c0-10.5,12.4-24.9,20.6-34.4c3.9-4.5,7.2-8.4,7.2-9.6c0-0.3-0.1-0.5-0.7-0.5
	c-8.6,0-35,28.6-44.9,39.3l-3.9,5.6h-8.5l0.3-0.5c1.4-2.1,4.6-6.1,8.3-10.8c8.5-10.8,21.4-27.1,21.4-31c0-0.5-0.2-0.5-0.4-0.5
	c-2.6,0-10.5,7.1-16.3,12.3c-1,0.9-1.9,1.7-2.8,2.5l-3.5,3.1l-1.7-1l4.2-3.8c4.5-4.2,16.6-15.2,21.3-15.2c1.3,0,2,0.9,2,2.4
	c0,5-5.6,14.7-14.1,27.7c15.5-16.3,31.7-32,38.7-32c2.2,0,2.6,1.4,2.6,2.2c0,8.6-10.3,21-18.5,30.9c-5,6-9.3,11.3-9.3,13.4
	c0,1,0.4,1.4,1.4,1.4c4.4,0,12.5-5.2,24.1-15.5l17.2-15.3l1.1,1.5l-17.2,15.3C415.4,157.5,404.3,166.2,398.3,166.2z M422.1,117.6
	c1.2,0,1.3,0.8,1.3,1.2c0,1.4-2.5,4.4-7.4,10.1c-8.1,9.5-20.4,23.8-20.4,34c0,1.9,0.8,2.7,2.7,2.7c5.9,0,16.8-8.6,24.9-15.8
	l16.8-14.9l-0.4-0.5l-16.7,14.9c-11.9,10.6-19.9,15.7-24.6,15.7c-1.4,0-2.1-0.7-2.1-2.1c0-2.4,4.2-7.4,9.5-13.8
	c8.2-9.8,18.3-22.1,18.3-30.5c0-0.7-0.2-1.5-1.9-1.5c-8.1,0-31,24.2-40.8,34.5l-0.5-0.4c9.6-14.4,16-25.1,16-30.4
	c0-1.2-0.5-1.7-1.4-1.7c-4.4,0-16.8,11.3-20.9,15l-3.5,3.2l0.5,0.3l3.2-2.8c0.9-0.8,1.8-1.6,2.8-2.5c6.2-5.5,13.9-12.4,16.8-12.4
	c0.5,0,1.1,0.2,1.1,1.2c0,4.1-12.4,19.8-21.5,31.4c-3.4,4.3-6.4,8.1-7.9,10.3h6.9l3.7-5.4C393.7,138.7,414.2,117.6,422.1,117.6z
	 M462.8,119.4c0,8.4-22.2,23.2-26.9,24.7c-5,7.2-8.7,13.9-8.7,17.4c0,2.5,1.9,3.2,4,3.2c1.6,0,3.4-0.5,4.6-1
	c5.6-2.3,13.3-8.4,20.5-14.7l17-15.1l0.7,1l-17,15.1c-7.1,6.3-15,12.5-20.8,14.9c-1.5,0.6-3.2,1-4.9,1c-3,0-5.6-1.4-5.6-5.6
	c0-19.8,25.6-42.7,35.2-42.7C462.2,117.5,462.8,118.5,462.8,119.4z M437.4,142.1c6.6-3.4,24.2-15.5,24.2-22.7c0-0.2-0.2-0.6-0.6-0.6
	c-0.1,0-0.2,0.1-0.4,0.1C456.5,119.2,445.6,130.8,437.4,142.1z M431.4,166.2c-3.8,0-5.9-2.1-5.9-5.9c0-19.6,25.5-43,35.5-43
	c1.4,0,2.2,1.1,2.2,2.2c0,8.5-21.8,23.2-27,24.9c-5.5,7.9-8.6,14-8.6,17.1c0,1.9,1.2,2.9,3.7,2.9c1.9,0,3.8-0.7,4.5-1
	c4.7-2,11.6-6.9,20.4-14.7l17.2-15.3l1.1,1.5l-17.2,15.3c-8.9,7.9-15.9,12.9-20.9,14.9C434.8,165.8,433,166.2,431.4,166.2z
	 M460.9,117.8c-9.9,0-34.9,23.1-34.9,42.4c0,4.4,2.9,5.3,5.3,5.3c1.5,0,3.3-0.4,4.7-1c4.9-2,11.9-7,20.8-14.8l16.8-14.9l-0.4-0.5
	l-16.7,14.9c-8.8,7.8-15.8,12.8-20.6,14.8c-0.8,0.3-2.8,1-4.7,1c-2.8,0-4.3-1.3-4.3-3.6c0-4.4,5.5-12.9,8.7-17.6l0.1-0.1l0.1,0
	c4.8-1.5,26.7-16.2,26.7-24.3C462.5,118.8,462.1,117.8,460.9,117.8z M436.3,143l0.8-1.1c7.9-11,19.2-23,23.5-23.4c0.1,0,0.1,0,0.1,0
	c0.1,0,0.2,0,0.3,0c0.5,0,0.9,0.5,0.9,0.9c0,7.3-17.7,19.6-24.4,23L436.3,143z M460.9,119.1c0,0-0.1,0-0.1,0c-0.1,0-0.2,0-0.3,0
	c-3.5,0.3-13.4,10.3-22.1,22c7.7-4.3,22.8-15.4,22.8-21.8C461.2,119.3,461.1,119.1,460.9,119.1z M684.6,64c-1.6-0.1-3.2-0.2-4.7-0.2
	c-20.1,0-35.2,14.4-49.4,28.1c-12.8,12.4-24.9,24.3-39.9,24.3c-0.6,0-1.2,0-1.8-0.1c-0.9,4.9-2.7,10.5-4.7,16.3
	c-3.1,9.1-6.1,18.7-6.1,25.8c0,22.6,18.3,36.9,34.2,36.9c11.7,0,22.1-8,22.1-26.6c0-21.5-18.6-38.4-38.3-42.3l0.2-1.2
	c20.2,4,39.3,21.6,39.3,43.6c0,19.3-10.9,27.8-23.3,27.8c-16.4,0-35.4-14.9-35.4-38.2c0-7.6,3.1-17.2,6.1-26.3
	c1.9-5.7,3.7-11.2,4.6-15.9c-1.4-0.2-2.6-0.6-3.7-0.9c-3.2,4.8-6.3,9.2-9.4,13.4c-18.7,24.7-36.1,39.4-58,39.4
	c-17.4,0-40.6-7-40.6-27.2c0-2.9,0.5-5.9,1.6-8.8c-6.7-4.7-10-11.4-10-18.4c0-18,22.3-38.8,68-38.8c23.2,0,35.2,7.9,35.2,7.9l-0.7,1
	c0,0-11.5-7.6-34.5-7.6c-44.9,0-66.8,20.1-66.8,37.6c0,6.6,3.1,12.7,9.2,17.2c5.6-14.2,22.3-27.1,45.3-27.1
	c22.2,0,31.3,9.4,31.3,19.8c0,1.3-0.1,2.6-0.4,3.9c8.7-4.6,16.2-10.5,23.3-17.4c-0.7-1.2-1.1-2.4-1.1-3.6c0-2.6,1.7-4.6,5-4.6
	c1.4,0,2.5,0.2,3.5,0.5c6.7-7.4,13.3-15.4,20.2-24.1c0.4-0.4,0.7-0.9,1.1-1.4l1,0.7c-6.6,10.7-12.4,20.6-18,29.5
	c0.3,1,0.4,2.1,0.4,3.4c0,1.5-0.2,3.1-0.4,4.7c0.5,0,1,0,1.6,0c14.5,0,26.5-11.7,39.1-24c14.3-13.9,29.5-28.4,50.1-28.4
	c1.5,0,3.1,0.1,4.7,0.2V64z M478.4,132.5c-0.9,2.7-1.4,5.4-1.4,8.1c0,16.2,16,23.1,30.6,23.1c23.1,0,50.2-15.1,66-36.2
	c2.9-3.9,5.9-8.2,9.1-12.9c-2.2-1.1-3.8-2.4-4.9-3.9c-7.1,6.8-14.7,12.7-23.3,17.4c2.9,2.4,5.6,5.3,8.3,8.7l-1,0.7
	c-2.6-3.3-5.4-6.1-8.1-8.5c-3.6,13.9-19.9,24.3-36.1,24.3c-9.5,0-23.3-3.4-23.3-13.7c0-0.4,0-0.8,0.1-1.2
	C487.9,137.2,482.5,135.2,478.4,132.5z M478.8,131.3c4.1,2.7,9.4,4.7,15.8,5.8c2.1-9.4,15.9-19.8,32.4-19.8c8.3,0,17.3,2.6,25.8,9.4
	c0.2-1.1,0.4-2.2,0.4-3.4c0-9.7-8.9-18.6-30.1-18.6C500.5,104.7,484.1,117.5,478.8,131.3z M495.6,138.6c-0.1,0.4-0.1,0.7-0.1,1.1
	c0,8.9,12.5,10.9,19.6,10.9c15.4,0,32.6-8.7,37-21.2c-12.6,6.2-27.5,9.9-46.4,9.9C502.1,139.2,498.7,139,495.6,138.6z M495.8,137.3
	c3.1,0.4,6.4,0.7,10,0.7c19.2,0,34.1-3.7,46.7-10c-8.5-6.8-17.4-9.5-25.5-9.5C511.1,118.5,497.8,128.4,495.8,137.3z M583.8,103.1
	c-0.7-0.2-1.6-0.3-2.6-0.3c-2.5,0-3.7,1.5-3.7,3.4c0,0.9,0.2,1.9,0.7,2.7C580.2,107,582,105.1,583.8,103.1z M578.7,109.8
	c1,1.4,2.6,2.8,4.7,3.7c1.4-2.1,2.9-4.4,4.3-6.7c-0.5-1.5-1.4-2.7-2.9-3.4C582.8,105.7,580.8,107.8,578.7,109.8z M584.5,114
	c0.9,0.3,2.1,0.6,3.2,0.7c0.3-1.6,0.5-3.2,0.5-4.6c0-0.6-0.1-1.2-0.1-1.8C586.9,110.3,585.7,112.2,584.5,114z M585.8,102.5
	c1.3,0.7,2.2,1.7,2.8,3c4.6-7.1,9.2-14.8,13.9-22.8C596.9,89.7,591.5,96.4,585.8,102.5z M612.2,196.7c-17.3,0-35.8-15.5-35.8-38.5
	c0-7.8,3.3-17.7,6.1-26.4c2-6.1,3.6-11.1,4.5-15.5c-1.2-0.2-2.2-0.5-3.2-0.8c-3.2,4.8-6.3,9.1-9.3,13.2
	c-21,27.7-38.4,39.6-58.3,39.6c-9.9,0-19.8-2.2-26.9-6.1c-9.1-4.9-13.9-12.3-13.9-21.5c0-2.9,0.5-5.9,1.5-8.7
	c-6.4-4.7-10-11.2-10-18.5c0-19,24-39.1,68.4-39.1c23,0,35.3,7.8,35.4,7.9l0.3,0.2l-1.1,1.5l-0.3-0.2c-0.1-0.1-11.7-7.6-34.3-7.6
	c-32.2,0-66.5,13.1-66.5,37.2c0,6.5,3.1,12.4,8.8,16.7c5.5-13.5,21.6-27,45.5-27c29.4,0,31.7,15.4,31.7,20.2c0,1.1-0.1,2.2-0.3,3.3
	c7.7-4.2,14.9-9.6,22.4-16.8c-0.6-1.1-1-2.3-1-3.6c0-3,2.1-4.9,5.3-4.9c1.2,0,2.3,0.1,3.4,0.5c6.3-6.9,12.6-14.6,20.1-23.9
	c0.4-0.4,0.8-0.9,1.1-1.4l0.2-0.3l1.5,1.1l-0.2,0.3c-2.3,3.8-4.5,7.4-6.6,10.9c-3.9,6.5-7.7,12.7-11.3,18.4c0.2,1,0.4,2.1,0.4,3.3
	c0,1.5-0.2,3-0.4,4.4h1.2c14.2,0,26.1-11.5,38.6-23.7l0.3-0.3c13.7-13.4,29.3-28.5,50.3-28.5c1.5,0,3.1,0.1,4.7,0.2l0.3,0l0,0.3v1.6
	l-0.4,0c-1.6-0.1-3.2-0.2-4.6-0.2c-20.3,0-35.6,14.9-49.1,28.1l-0.3,0.3c-12.8,12.4-24.8,24.1-39.8,24.1c-0.5,0-1,0-1.5,0
	c-1,4.8-2.7,10.4-4.6,16c-3.1,9.2-6.1,18.8-6.1,25.7c0,21.9,17.5,36.6,33.9,36.6c16,0,21.8-13.6,21.8-26.3c0-16.7-13.3-37.1-38.1-42
	l-0.3-0.1l0.4-1.9l0.3,0.1c10.2,2,20.1,7.5,27.4,15.1c7.8,8.2,12.2,18.4,12.2,28.7C635.9,189.3,623.7,196.7,612.2,196.7z
	 M583.7,114.6l0.2,0.1c1.1,0.4,2.3,0.7,3.6,0.9l0.3,0l-0.1,0.3c-0.9,4.5-2.6,9.7-4.6,16c-2.9,8.7-6.1,18.5-6.1,26.2
	c0,22.7,18.2,37.9,35.1,37.9c17,0,23-14.2,23-27.5c0-22.1-19.6-39.3-38.7-43.2l-0.1,0.6c9.8,2,19.4,7.3,26.4,14.6
	c7.6,8,11.9,17.9,11.9,28c0,13-5.9,26.9-22.4,26.9c-16.7,0-34.5-15-34.5-37.3c0-7.1,3-16.7,6.1-25.9c1.9-5.8,3.7-11.4,4.7-16.2
	l0.1-0.3l0.3,0c0.5,0.1,1.2,0.1,1.8,0.1c14.7,0,26.7-11.6,39.4-23.9l0.3-0.3c13.6-13.2,29-28.2,49.6-28.2c1.4,0,2.9,0.1,4.4,0.2V63
	c-1.5-0.1-3-0.2-4.4-0.2c-20.8,0-36.3,15-49.9,28.3l-0.3,0.3c-12.6,12.3-24.6,23.8-39.1,23.8h-1.9l0.1-0.4c0.2-1.5,0.4-3.1,0.4-4.7
	c0-1.2-0.1-2.3-0.4-3.3l0-0.1l0.1-0.1c3.6-5.8,7.4-12,11.3-18.5c2.1-3.5,4.3-7,6.5-10.7l-0.5-0.4c-0.3,0.4-0.6,0.8-0.9,1.1
	c-7.5,9.4-13.8,17.1-20.2,24.1l-0.1,0.2l-0.2-0.1c-1-0.3-2.2-0.5-3.4-0.5c-2.9,0-4.7,1.6-4.7,4.3c0,1.2,0.3,2.4,1,3.4l0.1,0.2
	l-0.2,0.2c-7.8,7.6-15.3,13.1-23.4,17.4l-0.6,0.3l0.1-0.7c0.2-1.2,0.4-2.5,0.4-3.8c0-4.6-2.2-19.5-31-19.5
	c-23.8,0-39.8,13.5-45,26.9l-0.2,0.4l-0.3-0.2c-6-4.4-9.4-10.6-9.4-17.4c0-9.4,6.1-18.7,16.7-25.6c8.6-5.6,24.4-12.3,50.4-12.3
	c20.9,0,32.5,6.4,34.4,7.5l0.4-0.5c-2-1.2-13.9-7.6-34.7-7.6c-32.8,0-67.7,13.5-67.7,38.5c0,7.2,3.5,13.6,9.9,18.1l0.2,0.1l-0.1,0.2
	c-1,2.8-1.5,5.8-1.5,8.7c0,8.9,4.7,16.1,13.6,20.9c7.1,3.8,16.8,6,26.6,6c19.6,0,36.9-11.8,57.8-39.3c3.1-4.1,6.2-8.4,9.4-13.3
	L583.7,114.6z M507.6,164c-8,0-15.4-2-20.9-5.5c-6.5-4.2-10-10.4-10-17.9c0-2.8,0.5-5.5,1.4-8.2l0.1-0.4l0.4,0.2
	c4.1,2.7,9.4,4.7,15.8,5.8l0.3,0.1l0,0.3c-0.1,0.4-0.1,0.8-0.1,1.2c0,10.6,15.1,13.4,23,13.4c16.5,0,32.2-10.6,35.8-24.1l0.1-0.5
	l0.4,0.3c2.8,2.5,5.5,5.2,8,8.3l0.5-0.4c-2.6-3.3-5.3-6-8-8.4l-0.4-0.3l0.4-0.2c8.1-4.3,15.7-10,23.3-17.4l0.3-0.3l0.2,0.3
	c1.2,1.6,2.8,2.9,4.8,3.8l0.3,0.2l-0.2,0.3c-3.5,5.2-6.5,9.4-9.1,12.9C557.8,149.1,530.6,164,507.6,164z M478.6,133
	c-0.8,2.5-1.2,5-1.2,7.6c0,11.3,9.4,22.8,30.3,22.8c22.8,0,49.8-14.8,65.8-36.1c2.6-3.5,5.5-7.6,8.9-12.6c-1.8-0.9-3.3-2.1-4.5-3.6
	c-7.4,7.1-14.9,12.7-22.7,17c2.8,2.4,5.4,5.1,8,8.4l0.2,0.3l-1.5,1.1l-0.2-0.2c-2.3-3-4.9-5.7-7.7-8.1
	c-3.8,13.5-19.6,24.1-36.3,24.1c-5.6,0-11.2-1.1-15.4-3c-5.4-2.5-8.3-6.3-8.3-11c0-0.3,0-0.6,0-1C487.9,137.5,482.7,135.6,478.6,133
	z M515.1,150.8c-9.2,0-19.9-2.9-19.9-11.2c0-0.3,0-0.7,0.1-1.1l0.1-0.3l0.3,0c3.2,0.5,6.7,0.7,10.1,0.7c17.7,0,32.8-3.2,46.2-9.9
	l0.7-0.4l-0.3,0.8C548.3,141.2,531.6,150.8,515.1,150.8z M495.9,138.9c0,0.2,0,0.5,0,0.7c0,10.2,17.3,10.5,19.3,10.5
	c15.8,0,31.9-9,36.4-20.2c-13.3,6.5-28.3,9.6-45.8,9.6C502.4,139.6,499,139.3,495.9,138.9z M505.8,138.3c-3.5,0-6.8-0.2-10-0.7
	l-0.4,0l0.1-0.3c2.1-9,15.6-19,31.5-19c9,0,17.9,3.3,25.7,9.6l0.4,0.3l-0.5,0.2C539.2,135,523.8,138.3,505.8,138.3z M496.2,137
	c3.1,0.4,6.3,0.6,9.6,0.6c17.8,0,32.9-3.2,46.1-9.7c-7.6-6-16.2-9.1-24.9-9.1C511.5,118.8,498.5,128.4,496.2,137z M494.8,137.5
	l-0.3,0c-6.2-1-11.6-3-15.9-5.9l-0.2-0.1l0.1-0.2c2.8-7.2,8.4-13.9,15.8-18.7c8.2-5.4,18.2-8.2,28.8-8.2c14.7,0,30.4,5,30.4,18.9
	c0,1.2-0.1,2.3-0.4,3.5l-0.1,0.5l-0.4-0.3c-7.8-6.2-16.4-9.4-25.6-9.4c-16.3,0-30,10.3-32.1,19.6L494.8,137.5z M479.2,131.2
	c4.1,2.7,9.2,4.6,15.1,5.6c2.4-9.4,16.2-19.8,32.6-19.8c9.2,0,17.8,3.1,25.6,9.2c0.2-0.9,0.3-1.9,0.3-2.9c0-8.8-7.8-18.3-29.8-18.3
	C506.9,105,486.2,113.2,479.2,131.2z M588,115.1l-0.3,0c-1-0.1-2.1-0.4-3.3-0.8l-0.4-0.1l0.2-0.4c0.8-1.2,1.5-2.4,2.3-3.6l1.8-2.8
	l0.1,0.9c0.1,0.6,0.1,1.2,0.1,1.8c0,1.3-0.2,2.9-0.5,4.6L588,115.1z M585,113.8c0.9,0.3,1.7,0.5,2.5,0.6c0.3-1.6,0.4-3,0.4-4.2
	c0-0.3,0-0.6,0-0.8l-0.8,1.2C586.4,111.6,585.7,112.7,585,113.8z M583.6,113.9l-0.2-0.1c-2-0.9-3.7-2.2-4.9-3.9l-0.2-0.2l0.2-0.2
	c2.1-1.9,4-4,6-6.1l0.3-0.3l0.2,0.1c1.5,0.7,2.5,1.9,3,3.6l0,0.1L588,107c-1.6,2.6-3,4.8-4.3,6.7L583.6,113.9z M579.1,109.8
	c0.8,1,2.1,2.3,4.2,3.3c1.2-1.8,2.6-3.9,4.1-6.3c-0.5-1.3-1.3-2.3-2.4-2.9C583,106,581.1,107.9,579.1,109.8z M578.1,109.4l-0.2-0.4
	c-0.5-0.9-0.7-2-0.7-2.9c0-2.2,1.6-3.7,4.1-3.7c0.9,0,1.8,0.1,2.6,0.3l0.5,0.1l-0.5,0.5c-1.9,2-3.6,3.8-5.5,5.7L578.1,109.4z
	 M581.3,103.1c-2.1,0-3.4,1.2-3.4,3c0,0.7,0.2,1.5,0.5,2.2c1.7-1.6,3.2-3.3,4.9-5.1C582.6,103.2,581.9,103.1,581.3,103.1z
	 M588.6,106.2l-0.2-0.6c-0.5-1.2-1.4-2.2-2.7-2.8l-0.4-0.2l0.3-0.3c5.7-6.2,11.1-12.9,16.6-19.8l0.5,0.4
	c-5.4,9.2-9.8,16.4-13.9,22.8L588.6,106.2z M586.4,102.4c1,0.6,1.8,1.4,2.3,2.4c3.4-5.3,7-11.3,11.3-18.5
	C595.5,91.9,591,97.3,586.4,102.4z M627.9,120.5c-28.5,37.8-31.3,41.9-31.3,42.3c0,1.2,0.6,1.7,1.7,1.7c5.5,0,27.2-18.9,51.1-44.1
	h5.7c-28.5,37.8-31.3,41.9-31.3,42.3c0,1.2,0.6,1.7,1.7,1.7c9.6,0,29.8-19.4,38.3-32.8c0.8-5.1,3.2-12.4,5.9-12.4
	c0.9,0,1.3,0.7,1.3,1.6c0,3.3-4.1,8.6-6.1,11.5c-0.1,0.9-0.2,1.7-0.2,2.6c0,4.1,1.4,7.1,4.1,7.1c1.7,0,3.9-1.1,6.6-3.5l5.2-4.7
	l0.7,1l-5.2,4.7c-2.7,2.4-5.4,3.8-7.6,3.8c-3,0-5.1-2.5-5.1-8.4v-0.2c-9.7,13.9-28.6,31-37.9,31c-1.9,0-3-0.7-3-3
	c0-4.2,3.5-11.7,6-15.2c2.4-3.5,8.5-11.4,13.5-17.7c-25,25.3-38.5,35.9-43.7,35.9c-1.9,0-3-0.7-3-3c0-4.2,3.5-11.7,6-15.2
	c4.4-6.3,20.8-27.2,20.8-27.1H627.9z M625.5,166.2c-2.2,0-3.3-1.1-3.3-3.3c0-4.4,3.6-11.9,6.1-15.4c1.9-2.8,6.1-8.2,10.2-13.5
	c-21.7,21.7-34.8,32.2-40.1,32.2c-2.2,0-3.3-1.1-3.3-3.3c0-4.4,3.6-11.9,6-15.4c2.5-3.6,8.6-11.5,12.1-15.9
	c7.8-10.1,8.8-11.2,9.1-11.3v0h6.4l-0.4,0.5c-25.7,34.1-31.1,41.5-31.3,42.2c0,1,0.4,1.4,1.4,1.4c5.2,0,26.6-18.5,50.8-44l0.1-0.1
	h6.5l-0.4,0.5c-25.7,34.1-31.1,41.5-31.3,42.2c0,1,0.4,1.4,1.4,1.4c9.6,0,29.8-19.7,37.9-32.6c0.8-4.9,3.2-12.6,6.2-12.6
	c1,0,1.6,0.7,1.6,1.9c0,2.9-2.9,7.1-5,10.2c-0.4,0.5-0.7,1-1,1.5c-0.1,0.8-0.2,1.7-0.2,2.4c0,4.2,1.4,6.7,3.8,6.7
	c1.7,0,3.9-1.2,6.3-3.4l5.5-5l1.1,1.5l-5.5,4.9c-2.8,2.5-5.5,3.9-7.8,3.9c-2,0-5.2-1.1-5.4-7.9C652.9,150,634.6,166.2,625.5,166.2z
	 M641.7,129.7l0.5,0.4c-4.9,6.2-11,14.2-13.5,17.7c-2.4,3.5-5.9,10.8-5.9,15c0,1.9,0.8,2.7,2.7,2.7c7.5,0,25.5-13.5,37.7-30.9
	l0.6-0.8v1.2c0,5.2,1.7,8.1,4.8,8.1c2.1,0,4.7-1.3,7.4-3.7l5-4.5l-0.4-0.5l-5,4.5c-2.6,2.4-4.9,3.6-6.8,3.6c-2.8,0-4.4-2.8-4.4-7.4
	c0-0.8,0.1-1.7,0.2-2.6l0.1-0.1c0.3-0.5,0.7-1,1.1-1.6c2.1-3,4.9-7.1,4.9-9.8c0-0.8-0.3-1.2-1-1.2c-2.3,0-4.7,6.3-5.6,12.1l0,0.1
	c-8.2,13-28.7,33-38.5,33c-1.4,0-2.1-0.7-2.1-2.1c0-0.4,0-0.8,31-42h-5c-24.7,25.9-45.7,44.1-51.2,44.1c-1.4,0-2.1-0.7-2.1-2.1
	c0-0.4,0-0.8,31-42h-4.9c-1.3,1.5-16.5,20.9-20.7,26.9c-2.4,3.5-5.9,10.8-5.9,15c0,1.9,0.8,2.7,2.7,2.7
	C603.6,165.5,618.2,153.4,641.7,129.7z M725,139.6c-11.4,10.2-27.8,18.2-33.1,18.2c-0.2,0-0.4,0-0.6,0c-5.2,4.7-10.4,7.9-14.4,7.9
	c-4.5,0-6.5-3-6.5-7.4c0-17.1,19.8-40.8,38.8-40.8c3.1,0,5.1,1.2,5.1,4.2c0,7.7-10.9,24.5-22,35c4.9-0.2,21.7-8.9,31.8-18.1l5.2-4.7
	l0.7,1L725,139.6z M709.8,119.2c-13.6,0-36.9,30.2-36.9,40.8c0,2.6,1.2,4.1,4.4,4.1c3.7,0,8.4-2.7,13-6.9c-0.2-0.3-0.3-0.7-0.3-1.1
	c0-3,5.6-8.1,8.3-8.1c0.2,0,0.3,0.1,0.4,0.1c7.8-9.6,14-20.8,14-25.8C712.6,120.1,711.5,119.2,709.8,119.2z M676.9,166
	c-4.3,0-6.8-2.8-6.8-7.7c0-8.3,4.7-18.6,12.4-27c8.1-8.9,17.9-14.1,26.8-14.1c3.6,0,5.4,1.6,5.4,4.5c0,7.4-10.1,23.6-21.4,34.5
	c5.6-1.1,21-9.1,30.7-17.9l5.5-5l1.1,1.5l-5.5,4.9c-11.7,10.6-28.1,18.2-33.4,18.2h-0.4C687.4,161.7,681.6,166,676.9,166z
	 M709.3,117.9c-8.7,0-18.3,5.1-26.3,13.9c-7.5,8.3-12.2,18.5-12.2,26.6c0,4.5,2.2,7,6.2,7c3.6,0,8.5-2.7,14.1-7.8l0.1-0.1h0.7
	c5.1,0,21.5-7.8,32.9-18.1l5-4.5l-0.4-0.5l-5,4.5c-10.6,9.6-27.2,18-32,18.2l-0.9,0l0.6-0.6c11.4-10.8,21.9-27.3,21.9-34.7
	C714.1,119.2,712.4,117.9,709.3,117.9z M677.2,164.4c-3.1,0-4.7-1.5-4.7-4.4c0-10.8,23.5-41.1,37.3-41.1c2.1,0,3.2,1.2,3.2,3.5
	c0,4.9-6.1,16.1-14.1,26l-0.2,0.2l-0.2-0.1c-0.1-0.1-0.2-0.1-0.3-0.1c-2.5,0-8,4.9-8,7.7c0,0.3,0.1,0.6,0.3,0.9l0.1,0.2l-0.2,0.2
	C685.3,162,680.7,164.4,677.2,164.4z M709.8,119.5c-5.9,0-14.7,6.1-23.3,16.3c-7.8,9.2-13.3,19.2-13.3,24.2c0,2.5,1.3,3.7,4,3.7
	c3.3,0,7.7-2.3,12.6-6.6c-0.1-0.3-0.2-0.7-0.2-1c0-3.2,5.8-8.4,8.6-8.4c0.1,0,0.2,0,0.3,0.1c7.9-9.8,13.8-20.7,13.8-25.4
	C712.3,120.5,711.5,119.5,709.8,119.5z M729.5,133.9c4.4-4,16.6-15.2,21.2-15.2c1,0,1.7,0.6,1.7,2.1c0,5.4-6.6,16.4-16.1,30.6
	c13.4-14.1,33.3-34.6,41-34.6c1.6,0,2.2,0.7,2.2,1.9c0,14-27.8,38.6-27.8,44.3c0,1.2,0.6,1.7,1.7,1.7c5.5,0,15.4-7.6,24.3-15.6
	l17-15.1l0.8,1l-17,15.1c-8.9,7.9-19.3,15.9-25.1,15.9c-1.9,0-3-0.7-3-3c0-15.6,27.8-40.1,27.8-44.1c0-0.6-0.4-0.9-1-0.9
	c-8.5,0-33.2,26.5-45.1,39.4l-3.8,5.5h-7.7c4.7-7,29.7-36.3,29.7-41.9c0-0.6-0.3-0.9-0.7-0.9c-3.1,0-13.1,9.4-19.3,14.9l-3.4,3
	l-1.1-0.6L729.5,133.9z M753.5,166.2c-2.2,0-3.3-1.1-3.3-3.3c0-10.5,12.4-24.9,20.6-34.4c3.9-4.5,7.2-8.4,7.2-9.6
	c0-0.3-0.1-0.5-0.7-0.5c-8.6,0-35,28.6-44.9,39.3l-3.9,5.6H720l0.3-0.5c1.4-2.1,4.6-6.1,8.3-10.8c8.5-10.8,21.4-27.1,21.4-31
	c0-0.5-0.2-0.5-0.4-0.5c-2.6,0-10.5,7.1-16.3,12.3c-1,0.9-1.9,1.7-2.8,2.5l-3.5,3.1l-1.7-1l4.2-3.8c4.5-4.1,16.6-15.2,21.3-15.2
	c1.3,0,2,0.9,2,2.4c0,5-5.6,14.7-14.1,27.7c15.5-16.3,31.7-32.1,38.7-32.1c2.2,0,2.6,1.4,2.6,2.2c0,8.6-10.3,21-18.5,30.9
	c-5,6-9.3,11.3-9.3,13.4c0,1,0.4,1.4,1.4,1.4c4.4,0,12.5-5.2,24.1-15.5l17.2-15.3l1.1,1.5l-17.2,15.3
	C770.6,157.5,759.5,166.2,753.5,166.2z M777.3,117.6c1.2,0,1.3,0.8,1.3,1.2c0,1.4-2.5,4.4-7.4,10.1c-8.1,9.5-20.4,23.8-20.4,34
	c0,1.9,0.8,2.7,2.7,2.7c5.9,0,16.8-8.6,24.9-15.8l16.8-14.9l-0.4-0.5L778,149.2c-11.9,10.6-19.9,15.7-24.6,15.7
	c-1.4,0-2.1-0.7-2.1-2.1c0-2.4,4.2-7.4,9.5-13.8c8.2-9.8,18.3-22.1,18.3-30.5c0-0.7-0.2-1.5-1.9-1.5c-8.1,0-31,24.2-40.8,34.5
	l-0.5-0.4c9.6-14.4,16-25.1,16-30.4c0-1.2-0.5-1.7-1.4-1.7c-4.4,0-16.3,10.9-20.8,15l-3.6,3.2l0.5,0.3l3.2-2.8
	c0.9-0.8,1.8-1.6,2.8-2.5c6.2-5.5,13.9-12.4,16.7-12.4c0.5,0,1.1,0.2,1.1,1.2c0,4.1-12.4,19.8-21.5,31.4c-3.4,4.3-6.4,8.1-7.9,10.3
	h7l3.7-5.4C748.9,138.7,769.4,117.6,777.3,117.6z M844.4,121.5c-6.6,8.5-19,19.5-31,28.3c-0.7,1.3-1.9,3.5-5.9,9.5
	c-8.2,12.2-26,38.7-58.4,38.7c-15.2,0-29.1-6-38.4-15.6l1-0.7c9,9.4,22.5,12.5,37.4,12.5c31.8,0,49.3-23.6,57.4-35.6
	c1-1.5,2.6-3.7,4.4-6.5l0.4-0.6c-11.3,8.2-22,14.2-26.8,14.2c-2.4,0-3.5-1.9-3.5-5.1c0-28.6,35.7-41.3,53.8-41.4
	c4.9-5.4,9.5-9.2,13-9.2c1.2,0,1.6,0.7,1.6,1.9c0,2.2-1.6,5.2-4.1,8.7c1.1,0.3,2.2,0.6,3.2,0.9l-0.5,1.2
	C846.8,122.2,845.6,121.8,844.4,121.5z M812.9,149c5.6-8.6,13.4-20.2,20.7-28.6c-18,1.2-51.4,24.5-51.4,40.1c0,2.1,0.8,3.9,2.2,3.9
	C789.4,164.5,801,157.8,812.9,149z M835,120.4c-6.7,7.5-14,18.2-19.8,27c11-8.4,22.1-18.3,28.1-26.1
	C840.7,120.7,837.9,120.4,835,120.4z M844.1,120.2c2.5-3.4,4-6.3,4-8.4c0-0.4-0.1-0.6-0.4-0.6c-3.1,0-7.2,3.2-11.6,8.1
	C838.7,119.3,841.5,119.6,844.1,120.2z M749.1,198.4c-14.9,0-29-5.7-38.7-15.7l-0.3-0.3l1.5-1.1l0.2,0.2c8,8.3,20.2,12.4,37.2,12.4
	c29.7,0,46.9-20.2,57.1-35.4c0.3-0.5,0.7-1.1,1.2-1.7c0.8-1.1,1.7-2.5,2.7-4c-11.8,8.4-21.3,13.3-25.7,13.3c-1.7,0-3.8-0.9-3.8-5.4
	c0-28.8,35.7-41.6,54-41.8c5.7-6.2,10-9.2,13.1-9.2c1.3,0,1.9,0.7,1.9,2.2c0,2.1-1.3,4.9-3.9,8.5c0.9,0.2,1.7,0.5,2.6,0.7l0.5,0.2
	l-0.8,1.9l-0.3-0.1c-1.1-0.4-2.2-0.8-3.3-1.1c-6.2,7.9-18,18.7-30.8,28.2l-0.3,0.5c-0.8,1.4-2.1,3.7-5.6,9l-0.1,0.1
	C799.3,172.2,781.6,198.4,749.1,198.4z M711.2,182.5c9.6,9.7,23.4,15.2,38,15.2c32.2,0,49.7-26,58.1-38.4l0.1-0.1
	c3.5-5.2,4.8-7.5,5.6-8.9l0.4-0.6c12.9-9.5,24.7-20.4,30.9-28.3l0.1-0.2l0.2,0.1c1.1,0.3,2.2,0.6,3.3,1l0.3-0.6
	c-0.9-0.3-1.9-0.6-2.9-0.8l-0.5-0.1l0.3-0.4c2.7-3.6,4.1-6.5,4.1-8.5c0-1.1-0.4-1.5-1.3-1.5c-3,0-7.2,3.1-12.7,9.1l-0.1,0.1l-0.1,0
	c-18.1,0.1-53.5,12.7-53.5,41.1c0,3.2,1.1,4.8,3.2,4.8c4.4,0,14.6-5.4,26.6-14.2l1.3-0.9l-1.2,2c-1.2,1.9-2.3,3.5-3.2,4.8
	c-0.4,0.6-0.8,1.2-1.2,1.7c-10.4,15.3-27.7,35.7-57.7,35.7c-17.1,0-29.4-4-37.5-12.4L711.2,182.5z M784.4,164.8
	c-1.6,0-2.6-1.6-2.6-4.2c0-7.2,7.1-16.8,19.1-25.8c11.2-8.4,24-14.1,32.6-14.7l0.8-0.1l-0.5,0.6c-7.3,8.5-15.3,20.3-20.6,28.5
	l-0.1,0.1C799.9,159,789.2,164.8,784.4,164.8z M832.8,120.8c-8.5,0.8-20.7,6.5-31.5,14.5c-11.8,8.8-18.8,18.2-18.8,25.2
	c0,1.6,0.5,3.5,1.9,3.5c4.5,0,15.3-5.9,28.2-15.3C817.9,140.8,825.6,129.3,832.8,120.8z M813.8,148.8l1.1-1.6
	c6.2-9.2,13.3-19.7,19.9-27l0.1-0.1h0.1c2.9,0,5.6,0.3,8.4,0.9l0.5,0.1l-0.3,0.4c-5.6,7.2-15.9,16.7-28.2,26.1L813.8,148.8z
	 M835.1,120.7c-6.1,6.9-12.8,16.4-18.6,25.2c11.4-8.8,20.8-17.6,26.2-24.4C840.2,121,837.7,120.7,835.1,120.7z M844.2,120.6l-0.2,0
	c-2.7-0.6-5.5-0.9-7.9-1l-0.7,0l0.5-0.5c5.1-5.5,8.9-8.2,11.8-8.2c0.3,0,0.7,0.2,0.7,0.9c0,2.1-1.4,5-4.1,8.6L844.2,120.6z
	 M836.8,118.9c2.2,0.1,4.7,0.4,7.1,0.9c2.5-3.4,3.8-6.2,3.8-8.1c0-0.2,0-0.3-0.1-0.3C845.1,111.5,841.5,113.9,836.8,118.9z
	 M276.8,24.3L280.9,8h2.7l4.1,16.3h-1.9l-1.2-4.8h-4.8l-1.2,4.8H276.8z M284.3,17.9c-1-4.2-1.7-7.2-2.1-9c-0.2,1-0.9,4-2.1,9H284.3z
	 M298.2,24.3h-1.8V8.2h2.4l4.1,10c0.2,0.4,0.5,1.3,0.9,2.8c-0.2-4-0.3-8.3-0.3-12.8h1.8v16.3h-1.5l-5.7-13.9
	C298.1,15,298.1,19.6,298.2,24.3z M341,22.7v1.6h-5.9v-1.6h2.1V9.8h-2.1V8.2h5.9v1.6h-2.1v12.9H341z M354,24.3h-1.8V8.2h2.4l4.1,10
	c0.2,0.4,0.5,1.3,0.9,2.8c-0.2-4-0.3-8.3-0.3-12.8h1.8v16.3h-1.5l-5.7-13.9C353.9,15,353.9,19.6,354,24.3z M374.3,24.3V9.8h-4V8.2
	h9.8v1.6h-4v14.5H374.3z M390.3,8.2h8.2v1.6h-6.4v5.4h4.6v1.5h-4.6v5.9h6.6v1.6h-8.4V8.2z M408.5,8.2h3.6c3.4,0,5,1.5,5,4.6
	c0,2.1-0.9,3.6-2.7,4.5l3.8,7h-2l-3.5-6.5h-2.3v6.5h-1.8V8.2z M412.1,16.3c1.8,0,3.1-1.3,3.1-3.6c0-2-1-3-3.1-3h-1.8v6.6H412.1z
	 M434,22.7v1.6h-5.9v-1.6h2.1V9.8h-2.1V8.2h5.9v1.6h-2.1v12.9H434z M449.7,24.7c-3.2,0-5-2.9-5-8.5s1.8-8.5,5-8.5c3.2,0,5,2.9,5,8.5
	S452.9,24.7,449.7,24.7z M446.5,15.8c0,4.9,1,7.3,3.1,7.3c2.1,0,3.1-2.3,3.1-6.9c0-4.6-1.1-6.9-3.1-6.9
	C447.7,9.4,446.5,11.6,446.5,15.8z M464.3,8.2h3.6c3.4,0,5,1.5,5,4.6c0,2.1-0.9,3.6-2.7,4.5l3.8,7h-2l-3.5-6.5h-2.3v6.5h-1.8V8.2z
	 M467.9,16.3c1.8,0,3.1-1.3,3.1-3.6c0-2-1-3-3.1-3h-1.8v6.6H467.9z M483.4,21c0.7,1.4,2,2.1,3.3,2.1c1.6,0,2.6-1,2.6-2.6
	c0-1.5-0.9-2.5-2.7-3.7c-2.6-1.7-4.2-2.7-4.2-5c0-2.3,1.8-4,4.4-4c1.7,0,3.1,0.8,4.2,2.4l-1.4,1c-1-1.2-1.9-1.8-3-1.8
	c-1.3,0-2.3,1-2.3,2.1c0,1.3,1.1,2.2,2.9,3.5c2.5,1.7,4,2.9,4,5.4c0,2.6-2,4.5-4.7,4.5c-1.8,0-3.3-0.8-4.5-2.4L483.4,21z M524.5,9.4
	c-2.2,0-3.2,2.3-3.2,6.9c0,4.7,1,6.9,3.4,6.9c1.4,0,2-0.7,2.5-2.3l1.5,0.4c-0.5,2.3-1.9,3.5-4.1,3.5c-3.4,0-5.2-2.9-5.2-8.5
	c0-5.6,1.8-8.5,5-8.5c2.4,0,4.1,1.5,4.3,4l-1.8,0.1C526.7,10.2,525.9,9.4,524.5,9.4z M542.7,24.7c-3.2,0-5-2.9-5-8.5s1.8-8.5,5-8.5
	c3.2,0,5,2.9,5,8.5S545.9,24.7,542.7,24.7z M539.5,15.8c0,4.9,1,7.3,3.1,7.3c2.1,0,3.1-2.3,3.1-6.9c0-4.6-1.1-6.9-3.1-6.9
	C540.7,9.4,539.5,11.6,539.5,15.8z M561.3,20.8c1.1,0,1.9,0.8,1.9,1.9c0,1.1-0.8,1.9-1.9,1.9s-1.9-0.8-1.9-1.9
	C559.3,21.6,560.2,20.8,561.3,20.8z M333.9,205.7c9.3,0,13.4,5.9,13.4,19.1c0,13.2-4,19-13.4,19h-8.7v-38.1H333.9z M329.5,240.2h4.1
	c7,0,9.2-4.3,9.2-15.4c0-11.2-2.2-15.4-9.2-15.4h-4.1V240.2z M363.9,205.7h19.4v3.8h-15.1v12.8h11v3.6h-11v14h15.6v3.8h-20V205.7z
	 M400.7,236c1.8,3.2,4.7,5.1,7.8,5.1c3.7,0,6.2-2.5,6.2-6.3c0-3.5-2.2-6-6.4-8.8c-6.1-4-10-6.4-10-11.9c0-5.5,4.4-9.5,10.4-9.5
	c4.1,0,7.4,1.9,10,5.6l-3.2,2.4c-2.3-3-4.6-4.4-7.2-4.4c-3.1,0-5.4,2.3-5.4,5c0,3.2,2.6,5.2,7,8.2c5.9,4.1,9.4,6.8,9.4,12.7
	c0,6.2-4.7,10.7-11.1,10.7c-4.2,0-7.9-1.9-10.7-5.7L400.7,236z M450.8,240.1v3.8h-14.1v-3.8h4.9v-30.6h-4.9v-3.8h14.1v3.8h-4.9v30.6
	H450.8z M479.7,244.9c-7.6,0-12-6.9-12-20.1s4.3-20.1,12-20.1c5.6,0,9.3,3.5,9.8,9.5l-4,0.3c-0.6-4-2.6-6.1-5.8-6.1
	c-5,0-7.5,5.4-7.5,16.3c0,11.1,2.2,16.2,7.6,16.2c4.2,0,6.4-3.6,6.4-10.8c0-0.6-0.1-1.1-0.1-1.7h-7.8v-3.8h12v19.6h-3v-4
	C485.1,243.4,482.6,244.9,479.7,244.9z M511.8,243.8h-4.2v-38.1h5.6l9.6,23.7c0.4,1,1.1,3.2,2.1,6.7c-0.5-9.5-0.7-19.7-0.8-30.4h4.2
	v38.8h-3.5l-13.5-33C511.5,221.9,511.6,232.7,511.8,243.8z"/>
</svg>
