<svg id="Layer_1" data-name="Layer 1" xmlns="http://www.w3.org/2000/svg" viewBox="0 0 855.5 260.64"><defs><style>.cls-1,.cls-2{fill:#fff;}.cls-1{stroke:#fff;stroke-miterlimit:10;stroke-width:0.65px;}</style></defs><title>CKD_Logo_OL</title><path class="cls-1" d="M113.65,150c-13.36,11.86-34.39,21.53-50.05,21.53C51.74,171.51,43,166,43,151.72a50.62,50.62,0,0,1,.94-9.61,69.06,69.06,0,0,1-7.18.37c-13.6,0-30-4.24-30-22.34,0-14.85,22.09-39.94,63.54-39.94a110.65,110.65,0,0,1,17.41,1.37c15-10.73,31.39-17.6,45-17.6,10,0,14,4.37,14,11.11,0,20.85-41.56,64.91-64,64.91-6,0-8.55-2.37-8.61-6.37a101.35,101.35,0,0,1-26.9,8.11,31.3,31.3,0,0,0-1.93,10c0,13.17,8,18.16,18.85,18.16,15.35,0,36.51-10,48.93-21l16.85-15,.75,1Zm-69.46-9.11c4.62-21.66,22-43.44,42.13-58.23a102.42,102.42,0,0,0-16-1.19c-40.69,0-62.29,24.34-62.29,38.7,0,17.1,15.6,21.09,28.71,21.09A73,73,0,0,0,44.19,140.86Zm3.49-.37a96.58,96.58,0,0,0,26.4-8.05C74.83,119,90.56,99.8,106.1,88a81.1,81.1,0,0,0-12.54-4C73.52,99.92,54.3,123,47.69,140.49ZM94.87,83a73.41,73.41,0,0,1,12.42,4.18c7.93-5.87,15.79-9.74,21.47-9.74,2.25,0,3.37,1.25,3.37,3.25,0,11.36-25.59,33.52-40.32,43.19a131.7,131.7,0,0,1-16.48,9.17v.31c0,3.37,2.25,5.37,7.36,5.37,22,0,62.79-43.31,62.79-63.66,0-6-3.75-9.86-12.73-9.86C122.2,65.22,108.41,72.46,94.87,83ZM75.46,131.75a127.64,127.64,0,0,0,15.6-8.86c14.23-9.49,39.82-31.08,39.82-42.19,0-1.25-.62-2-2.12-2-4,0-10.73,4.06-18.16,10a39.25,39.25,0,0,1,6.8,4.18l-.75,1a44,44,0,0,0-7.11-4.37C94.49,101.92,77.27,121.58,75.46,131.75Z"/><path class="cls-1" d="M173.59,124.26c-28.46,37.82-28.46,38.2-28.46,38.57a1.53,1.53,0,0,0,1.75,1.75c5.49,0,15.35-7.61,24.34-15.6l17-15.1.75,1L172,150c-8.93,7.93-19.35,15.85-25.09,15.85-1.87,0-3-.75-3-3,0-4.24,3.49-11.67,6-15.23,2.06-3,6.24-8.43,10-13.36-5.49,5.68-12.11,12.42-15.42,15.48-5.12,4.81-18.72,16-24.84,16-2.37,0-3.5-1.87-3.5-5.12,0-28.71,36.08-41.44,54.05-41.44a44.88,44.88,0,0,1,13.48,2.25l-.5,1.25a35.88,35.88,0,0,0-13-2.25c-17.6,0-52.8,24.09-52.8,40.19,0,2.12.75,3.87,2.25,3.87,5.74,0,19.35-11.23,24.09-15.73,5.62-5.24,20.6-20.78,23.47-23.78l.62-.81Z"/><path class="cls-1" d="M185.59,137.87l-1.12-.62,3.75-3.37a130.24,130.24,0,0,0,9.24-9.3c-7.8,6.05-14.6,8.3-20.1,8.3-12,0-17.35-5.49-17.35-12.36,0-10.49,13.1-24.09,34.82-24.09,6.8,0,14,1.56,21.1,3.62,3.25-4.37,6.05-8.11,8-11h7.36c-3.31,4.37-6.49,8.61-9.67,12.73l4.68,1.5c10,3.31,22.72,7,32.45,7a37.68,37.68,0,0,0,27.34-11l.75,1a38.59,38.59,0,0,1-28.08,11.23c-11,0-22-3.5-33-7l-5.06-1.62c-24,31.39-44,55.8-44,59.91a1.53,1.53,0,0,0,1.75,1.75c5.49,0,15.36-7.61,24.34-15.6l17-15.1.75,1-17,15.1c-8.93,7.93-19.35,15.85-25.09,15.85-1.87,0-3-.75-3-3,0-5.37,8.24-18.41,18.16-32.45-1.56,1.56-3.12,3.12-4.68,4.49Zm29.52-36.7c-7-2-13.86-3.5-20.28-3.5-21,0-33.58,12.86-33.58,22.84,0,6.12,4.87,11.11,16.1,11.11,6.36,0,14.6-3.24,24.21-12.23C206.31,112.9,211,106.66,215.11,101.17Z"/><path class="cls-1" d="M230.41,164.58c5.49,0,15.35-7.61,24.34-15.6l17-15.1.75,1-17,15.1c-8.93,7.93-19.35,15.85-25.09,15.85-1.87,0-3-.75-3-3,0-4.24,3.74-11.67,6-15.35,5.8-9.49,21.84-25.46,21.84-28.71,0-.62-.37-.87-1-.87-7.8,0-29.4,21.84-42.06,35.2l-6.37,9.74h-7.74s12.73-14.79,25.34-30.64c-.94.94-1.94,1.81-2.87,2.68l-3.37,3-1.12-.62,3.75-3.37a117.87,117.87,0,0,0,12-12.61c6.86-9.74,12.79-18.35,14.79-22,3.5-6.37,24.34-39.69,34.58-39.69,1.5,0,2.37.75,2.37,2.75,0,12.36-24,41.82-49.93,58.23l-17.54,26.59c12.92-13.29,30.77-30.52,38.13-30.52,1.62,0,2.25.75,2.25,1.87,0,13.61-27.84,39.44-27.84,44.31A1.53,1.53,0,0,0,230.41,164.58ZM235.46,118c24.4-16.35,46.87-43.81,46.87-55.61q0-1.5-1.12-1.5c-9.61,0-29.65,32.14-33.58,38.94C245.76,103,242,108.53,237.52,115,236.83,116,236.15,117,235.46,118Z"/><path class="cls-1" d="M294.89,119.39c0,8.36-22.22,23.16-26.9,24.65-5,7.18-8.68,13.92-8.68,17.41,0,2.5,1.87,3.25,4,3.25a13.23,13.23,0,0,0,4.62-1c5.62-2.31,13.29-8.36,20.47-14.73l17-15.1.75,1-17,15.1c-7.12,6.3-15,12.48-20.84,14.85a13.06,13.06,0,0,1-4.87,1c-3,0-5.62-1.37-5.62-5.62,0-19.85,25.59-42.69,35.2-42.69A1.83,1.83,0,0,1,294.89,119.39Zm-25.46,22.72c6.62-3.37,24.22-15.54,24.22-22.72a.67.67,0,0,0-.62-.62c-.13,0-.25.06-.38.06C288.59,119.21,277.67,130.75,269.43,142.11Z"/><path class="cls-1" d="M302.76,137.87l-1.12-.62,3.75-3.37c7.12-6.43,14.73-14.48,18.85-19.1v-.44c0-4.74,2.75-7,4.43-7a1.08,1.08,0,0,1,1.19,1.19c0,.62-.75,2.12-2.12,4l-2.37,2.87c0,.31-.06.56-.06.87,0,2.31.44,5,.44,6.12,0,11.73-18.72,27.46-25.59,39.44,0,1.12.75,1.62,2,1.62,5.62,0,16.35-6.74,25.09-14.48l17-15.1.75,1L328,150c-8.86,7.86-20,14.73-25.84,14.73-2,0-3.25-.75-3.25-3,0-16.35,25.09-35.57,25.09-39.57,0-.44.12-5.37.12-5.37-4.37,4.87-11.48,12.23-18,18.1Z"/><path class="cls-1" d="M344.21,133.87a115,115,0,0,0,10.92-11.23c1.06-1.31,1.69-2.12,1.69-2.12h5.74c-28.46,37.82-31.33,41.94-31.33,42.31a1.53,1.53,0,0,0,1.75,1.75c5.49,0,15.35-7.61,24.34-15.6l17-15.1.75,1-17,15.1c-8.92,7.93-19.35,15.85-25.09,15.85-1.87,0-3-.75-3-3,0-4.24,3.49-11.67,6-15.23,2-2.87,6.55-8.86,10.86-14.48-.62.62-1.25,1.19-1.87,1.75l-3.37,3-1.12-.62ZM378,95.8l-.75-.25,4-6.37h5.49Z"/><path class="cls-1" d="M374.3,133.87c4.37-4,16.6-15.23,21.22-15.23,1,0,1.69.62,1.69,2.06,0,5.43-6.62,16.35-16.1,30.58,13.36-14.1,33.33-34.64,41-34.64,1.62,0,2.25.75,2.25,1.87,0,14-27.84,38.57-27.84,44.31a1.53,1.53,0,0,0,1.75,1.75c5.49,0,15.35-7.61,24.34-15.6l17-15.1.75,1-17,15.1c-8.93,7.93-19.35,15.85-25.09,15.85-1.87,0-3-.75-3-3,0-15.6,27.84-40.07,27.84-44.06,0-.62-.38-.87-1-.87-8.49,0-33.2,26.53-45.12,39.44l-3.81,5.49h-7.74c4.74-7,29.71-36.32,29.71-41.94,0-.62-.25-.87-.75-.87-3.12,0-13.11,9.36-19.35,14.85l-3.37,3-1.12-.62Z"/><path class="cls-1" d="M462.81,119.39c0,8.36-22.22,23.16-26.9,24.65-5,7.18-8.67,13.92-8.67,17.41,0,2.5,1.87,3.25,4,3.25a13.2,13.2,0,0,0,4.62-1c5.62-2.31,13.29-8.36,20.47-14.73l17-15.1.75,1-17,15.1c-7.11,6.3-15,12.48-20.84,14.85a13,13,0,0,1-4.87,1c-3,0-5.62-1.37-5.62-5.62,0-19.85,25.59-42.69,35.2-42.69A1.83,1.83,0,0,1,462.81,119.39Zm-25.46,22.72c6.62-3.37,24.21-15.54,24.21-22.72a.67.67,0,0,0-.62-.62c-.12,0-.25.06-.37.06C456.51,119.21,445.59,130.75,437.35,142.11Z"/><path class="cls-1" d="M684.63,64c-1.62-.12-3.25-.25-4.74-.25-20.1,0-35.2,14.35-49.37,28.15-12.79,12.42-24.9,24.28-39.88,24.28a17,17,0,0,1-1.81-.06,136.6,136.6,0,0,1-4.68,16.29c-3.06,9.11-6.12,18.72-6.12,25.84,0,22.59,18.35,36.95,34.2,36.95,11.73,0,22.09-8,22.09-26.59,0-21.47-18.6-38.44-38.32-42.31l.25-1.25c20.22,4,39.32,21.59,39.32,43.56,0,19.35-10.86,27.84-23.34,27.84-16.35,0-35.45-14.85-35.45-38.2,0-7.61,3.12-17.23,6.12-26.34A147.08,147.08,0,0,0,587.52,116a19.75,19.75,0,0,1-3.68-.94c-3.18,4.81-6.3,9.24-9.42,13.36-18.72,24.71-36.07,39.44-58,39.44-17.35,0-40.57-7-40.57-27.21a25.94,25.94,0,0,1,1.56-8.8c-6.68-4.74-10-11.36-10-18.41,0-18,22.34-38.82,68-38.82,23.22,0,35.2,7.86,35.2,7.86l-.75,1s-11.48-7.61-34.45-7.61c-44.93,0-66.78,20.1-66.78,37.57,0,6.55,3.06,12.67,9.24,17.16,5.55-14.17,22.34-27.15,45.31-27.15,22.22,0,31.33,9.36,31.33,19.85a19.92,19.92,0,0,1-.37,3.87,103.36,103.36,0,0,0,23.28-17.35,6.73,6.73,0,0,1-1.06-3.62c0-2.62,1.75-4.62,5-4.62a11.51,11.51,0,0,1,3.5.5C591.51,94.68,598.07,86.63,605,78c.38-.44.75-.87,1.12-1.37l1,.75c-6.55,10.73-12.42,20.6-18,29.46a13.84,13.84,0,0,1,.38,3.37,32.82,32.82,0,0,1-.44,4.74h1.56c14.48,0,26.46-11.73,39.13-24,14.29-13.92,29.52-28.4,50.12-28.4,1.5,0,3.12.12,4.74.25ZM478.42,132.5a24.88,24.88,0,0,0-1.37,8.11c0,16.23,16,23.09,30.58,23.09,23.09,0,50.18-15.1,66-36.2,2.87-3.87,5.93-8.24,9.11-12.92a13.32,13.32,0,0,1-4.93-3.93,106.37,106.37,0,0,1-23.34,17.41,61.51,61.51,0,0,1,8.3,8.68l-1,.75a62.42,62.42,0,0,0-8.11-8.49c-3.62,13.92-19.91,24.34-36.07,24.34-9.49,0-23.34-3.37-23.34-13.73a9,9,0,0,1,.06-1.25A41.56,41.56,0,0,1,478.42,132.5Zm.37-1.19a40.53,40.53,0,0,0,15.79,5.8c2.12-9.36,15.91-19.85,32.39-19.85,8.3,0,17.29,2.62,25.84,9.42a15.68,15.68,0,0,0,.37-3.43c0-9.74-8.86-18.6-30.08-18.6C500.52,104.66,484.1,117.46,478.8,131.31Zm16.79,7.24a6.56,6.56,0,0,0-.06,1.06c0,8.86,12.48,10.86,19.6,10.86,15.42,0,32.64-8.74,37-21.16-12.61,6.24-27.46,9.92-46.37,9.92A73.21,73.21,0,0,1,495.59,138.55Zm.19-1.25a70.26,70.26,0,0,0,10,.69c19.22,0,34.14-3.68,46.75-10-8.49-6.8-17.41-9.49-25.53-9.49C511.13,118.52,497.84,128.44,495.77,137.31Zm88.06-34.2a10.62,10.62,0,0,0-2.56-.31c-2.49,0-3.74,1.5-3.74,3.37a6.38,6.38,0,0,0,.69,2.75C580.16,107,582,105.1,583.84,103.11Zm-5.12,6.68a11,11,0,0,0,4.74,3.74c1.44-2.12,2.87-4.37,4.31-6.68a5.5,5.5,0,0,0-2.87-3.37C582.84,105.66,580.84,107.79,578.72,109.78Zm5.8,4.18a15.5,15.5,0,0,0,3.25.75,24.72,24.72,0,0,0,.5-4.56,16.87,16.87,0,0,0-.12-1.81C586.9,110.28,585.71,112.15,584.52,114Zm1.31-11.48a6,6,0,0,1,2.81,3c4.56-7.12,9.18-14.79,13.86-22.78C596.88,89.69,591.45,96.36,585.83,102.48Z"/><path class="cls-1" d="M627.87,120.52c-28.46,37.82-31.33,41.94-31.33,42.31a1.53,1.53,0,0,0,1.75,1.75c5.49,0,27.15-18.91,51.05-44.06h5.74c-28.46,37.82-31.33,41.94-31.33,42.31a1.53,1.53,0,0,0,1.75,1.75c9.61,0,29.83-19.41,38.26-32.83.81-5.12,3.18-12.36,5.93-12.36.94,0,1.31.69,1.31,1.56,0,3.31-4.06,8.55-6.05,11.55a18.36,18.36,0,0,0-.19,2.56c0,4.12,1.37,7.05,4.12,7.05,1.69,0,3.87-1.06,6.55-3.5l5.24-4.74.75,1-5.24,4.74c-2.68,2.43-5.37,3.81-7.61,3.81-3,0-5.12-2.5-5.12-8.43v-.19c-9.67,13.85-28.58,31-37.95,31-1.87,0-3-.75-3-3,0-4.24,3.49-11.67,6-15.23S637,136.24,642,129.88c-25,25.28-38.51,35.95-43.69,35.95-1.87,0-3-.75-3-3,0-4.24,3.49-11.67,6-15.23,4.43-6.3,20.84-27.21,20.84-27.09Z"/><path class="cls-1" d="M725,139.61c-11.36,10.24-27.84,18.16-33.14,18.16h-.56c-5.24,4.74-10.42,7.93-14.36,7.93-4.49,0-6.49-3-6.49-7.36,0-17.1,19.85-40.76,38.82-40.76,3.06,0,5.12,1.19,5.12,4.18,0,7.74-10.92,24.53-22,35,4.93-.19,21.66-8.86,31.83-18.1l5.24-4.74.75,1Zm-15.23-20.41c-13.6,0-36.95,30.21-36.95,40.82,0,2.56,1.25,4.06,4.37,4.06,3.75,0,8.36-2.75,13-6.87a2.1,2.1,0,0,1-.31-1.06c0-3,5.62-8.05,8.3-8.05a.9.9,0,0,1,.44.12c7.8-9.61,14-20.85,14-25.84C712.64,120.14,711.51,119.21,709.77,119.21Z"/><path class="cls-1" d="M729.5,133.87c4.37-4,16.6-15.23,21.22-15.23,1,0,1.69.62,1.69,2.06,0,5.43-6.62,16.35-16.1,30.58,13.36-14.1,33.33-34.64,41-34.64,1.62,0,2.25.75,2.25,1.87,0,14-27.84,38.57-27.84,44.31a1.53,1.53,0,0,0,1.75,1.75c5.49,0,15.35-7.61,24.34-15.6l17-15.1.75,1-17,15.1c-8.93,7.93-19.35,15.85-25.09,15.85-1.87,0-3-.75-3-3,0-15.6,27.84-40.07,27.84-44.06,0-.62-.38-.87-1-.87-8.49,0-33.2,26.53-45.12,39.44l-3.81,5.49h-7.74c4.74-7,29.71-36.32,29.71-41.94,0-.62-.25-.87-.75-.87-3.12,0-13.11,9.36-19.35,14.85l-3.37,3-1.12-.62Z"/><path class="cls-1" d="M844.41,121.52c-6.62,8.49-19,19.47-31,28.33a110,110,0,0,1-5.93,9.49c-8.24,12.23-26,38.7-58.42,38.7-15.23,0-29.08-6-38.45-15.6l1-.75c9,9.36,22.47,12.48,37.45,12.48,31.83,0,49.3-23.59,57.42-35.57,1-1.5,2.62-3.74,4.37-6.49l.37-.62c-11.3,8.18-22,14.23-26.84,14.23-2.37,0-3.49-1.87-3.49-5.12,0-28.58,35.7-41.32,53.8-41.44,4.93-5.43,9.55-9.24,13-9.24,1.25,0,1.62.75,1.62,1.87,0,2.18-1.56,5.24-4.12,8.68,1.12.31,2.18.62,3.25.94l-.5,1.25Q846.19,122,844.41,121.52ZM812.9,149c5.62-8.61,13.42-20.22,20.66-28.58-18,1.19-51.37,24.46-51.37,40.13,0,2.12.75,3.87,2.25,3.87C789.43,164.45,801,157.78,812.9,149ZM835,120.39c-6.68,7.49-14,18.16-19.85,27,11-8.43,22.09-18.29,28.15-26.09A39.34,39.34,0,0,0,835,120.39Zm9.11-.19c2.5-3.37,4-6.3,4-8.43,0-.38-.12-.62-.37-.62-3.12,0-7.18,3.25-11.61,8.05A44.32,44.32,0,0,1,844.1,120.21Z"/><path class="cls-2" d="M276.83,24.28,280.88,8h2.74l4.06,16.27H285.8l-1.18-4.82h-4.85l-1.15,4.82Zm7.46-6.36q-1.48-6.34-2.09-9c-.19,1-.86,4-2.06,9Z"/><path class="cls-2" d="M298.23,24.28h-1.75V8.22h2.38l4.06,10c.17.41.48,1.34.89,2.81-.19-4-.31-8.28-.34-12.79h1.75V24.56h-1.49l-5.66-13.87C298.09,15,298.14,19.57,298.23,24.28Z"/><path class="cls-2" d="M341,22.69v1.58h-5.93V22.69h2.06V9.8h-2.06V8.22H341V9.8h-2.06V22.69Z"/><path class="cls-2" d="M354,24.28h-1.75V8.22h2.38l4.06,10c.17.41.48,1.34.89,2.81-.19-4-.31-8.28-.34-12.79H361V24.56h-1.49l-5.66-13.87C353.89,15,353.94,19.57,354,24.28Z"/><path class="cls-2" d="M374.34,24.28V9.8h-4V8.22h9.79V9.8h-4V24.28Z"/><path class="cls-2" d="M390.25,8.22h8.18V9.83h-6.36v5.4h4.63v1.54h-4.63v5.9h6.58v1.61h-8.4Z"/><path class="cls-2" d="M408.47,8.22h3.6c3.36,0,5,1.46,5,4.56a4.57,4.57,0,0,1-2.74,4.46l3.84,7h-2l-3.53-6.53h-2.3v6.53h-1.8Zm3.6,8.09c1.82,0,3.07-1.32,3.07-3.58,0-2-1-3-3.07-3h-1.8v6.6Z"/><path class="cls-2" d="M434,22.69v1.58h-5.93V22.69h2.06V9.8h-2.06V8.22H434V9.8h-2.06V22.69Z"/><path class="cls-2" d="M449.65,24.73c-3.22,0-5-2.9-5-8.47s1.8-8.47,5-8.47,5,2.9,5,8.47S452.87,24.73,449.65,24.73Zm-3.14-8.9c0,4.9,1,7.3,3.14,7.3s3.14-2.3,3.14-6.89-1.06-6.86-3.14-6.86S446.51,11.6,446.51,15.83Z"/><path class="cls-2" d="M464.27,8.22h3.6c3.36,0,5,1.46,5,4.56a4.57,4.57,0,0,1-2.74,4.46l3.84,7h-2l-3.53-6.53h-2.3v6.53h-1.8Zm3.6,8.09c1.82,0,3.07-1.32,3.07-3.58,0-2-1-3-3.07-3h-1.8v6.6Z"/><path class="cls-2" d="M483.44,21a3.8,3.8,0,0,0,3.29,2.14,2.48,2.48,0,0,0,2.62-2.64c0-1.49-.94-2.54-2.69-3.72-2.57-1.7-4.22-2.71-4.22-5a4.09,4.09,0,0,1,4.39-4,5,5,0,0,1,4.22,2.38l-1.37,1a3.88,3.88,0,0,0-3-1.85,2.15,2.15,0,0,0-2.26,2.11c0,1.34,1.1,2.21,2.93,3.46,2.5,1.73,4,2.88,4,5.35a4.45,4.45,0,0,1-4.66,4.51,5.56,5.56,0,0,1-4.51-2.4Z"/><path class="cls-2" d="M524.53,9.37c-2.16,0-3.22,2.26-3.22,6.86s1,6.89,3.38,6.89c1.37,0,2-.67,2.54-2.33l1.51.41a4,4,0,0,1-4.13,3.53c-3.41,0-5.18-2.86-5.18-8.47s1.82-8.47,5-8.47a4,4,0,0,1,4.3,4l-1.78.14C526.71,10.23,525.87,9.37,524.53,9.37Z"/><path class="cls-2" d="M542.65,24.73c-3.22,0-5-2.9-5-8.47s1.8-8.47,5-8.47,5,2.9,5,8.47S545.87,24.73,542.65,24.73Zm-3.14-8.9c0,4.9,1,7.3,3.14,7.3s3.14-2.3,3.14-6.89-1.06-6.86-3.14-6.86S539.51,11.6,539.51,15.83Z"/><path class="cls-2" d="M561.25,20.77a1.91,1.91,0,0,1,1.92,1.92,1.92,1.92,0,1,1-1.92-1.92Z"/><path class="cls-2" d="M334.41,205.71c9.35,0,13.4,5.93,13.4,19.1s-4,19-13.4,19h-8.72V205.71ZM330,240.19h4.1c7,0,9.18-4.28,9.18-15.45s-2.17-15.39-9.18-15.39H330Z"/><path class="cls-2" d="M364.45,205.71h19.44v3.82H368.78v12.83h11V226h-11v14H384.4v3.82h-20Z"/><path class="cls-2" d="M401.21,236a9,9,0,0,0,7.81,5.07,5.88,5.88,0,0,0,6.21-6.27c0-3.54-2.22-6-6.38-8.84-6.1-4-10-6.44-10-11.86s4.39-9.52,10.43-9.52c4.1,0,7.35,1.88,10,5.64L416,212.66c-2.34-3-4.56-4.39-7.24-4.39a5.11,5.11,0,0,0-5.36,5c0,3.19,2.62,5.24,7,8.21,5.93,4.1,9.41,6.84,9.41,12.71,0,6.21-4.73,10.72-11.06,10.72-4.16,0-7.87-1.94-10.72-5.7Z"/><path class="cls-2" d="M451.38,240.08v3.76H437.3v-3.76h4.9V209.47h-4.9v-3.76h14.08v3.76h-4.9v30.61Z"/><path class="cls-2" d="M480.27,244.93c-7.64,0-12-6.9-12-20.12s4.33-20.12,12-20.12c5.59,0,9.29,3.48,9.8,9.52l-4,.34c-.63-4-2.57-6.1-5.76-6.1-5,0-7.47,5.42-7.47,16.3,0,11.06,2.22,16.25,7.64,16.25,4.22,0,6.38-3.59,6.38-10.77,0-.57-.06-1.08-.06-1.65H479V224.8h12v19.55h-3v-4C485.69,243.39,483.18,244.93,480.27,244.93Z"/><path class="cls-2" d="M511.28,243.84h-4.16V205.71h5.64l9.63,23.71c.4,1,1.14,3.19,2.11,6.67-.46-9.52-.74-19.67-.8-30.38h4.16v38.82h-3.53l-13.45-33C510.94,221.9,511.05,232.67,511.28,243.84Z"/></svg>