<?xml version="1.0" standalone="no"?>
<!DOCTYPE svg PUBLIC "-//W3C//DTD SVG 20010904//EN"
 "http://www.w3.org/TR/2001/REC-SVG-20010904/DTD/svg10.dtd">
<svg version="1.0" xmlns="http://www.w3.org/2000/svg"
 width="1000.000000pt" height="1000.000000pt" viewBox="0 0 1000.000000 1000.000000"
 preserveAspectRatio="xMidYMid meet">
<metadata>
Created by potrace 1.11, written by Peter Selinger 2001-2013
</metadata>
<g transform="translate(0.000000,1000.000000) scale(0.100000,-0.100000)"
fill="#000000" stroke="none">
<path d="M4838 9335 c-2 -2 -58 -5 -125 -9 -67 -3 -128 -8 -135 -10 -7 -3 -42
-7 -78 -10 -36 -3 -78 -8 -95 -11 -56 -9 -90 -14 -140 -21 -27 -3 -53 -8 -56
-10 -3 -2 -19 -5 -35 -8 -26 -5 -83 -17 -154 -32 -76 -16 -272 -72 -390 -111
-546 -181 -1091 -496 -1515 -874 -186 -166 -426 -427 -567 -616 -40 -54 -75
-100 -78 -103 -3 -3 -35 -50 -71 -105 -149 -226 -267 -439 -359 -650 -28 -66
-56 -129 -61 -140 -5 -11 -26 -68 -48 -126 -33 -89 -51 -145 -109 -334 -3 -11
-7 -24 -8 -30 -1 -5 -11 -46 -22 -90 -12 -44 -23 -91 -26 -105 -2 -14 -10 -50
-16 -80 -60 -300 -84 -542 -84 -865 0 -159 9 -358 18 -415 3 -14 7 -50 10 -80
7 -75 15 -136 26 -195 5 -27 12 -66 15 -85 65 -398 266 -961 471 -1320 218
-381 448 -685 730 -965 107 -106 192 -184 260 -240 27 -22 64 -54 84 -71 48
-41 209 -160 300 -221 275 -184 577 -339 875 -452 33 -13 69 -27 80 -32 41
-18 285 -91 415 -124 112 -28 209 -48 395 -81 29 -5 100 -13 170 -20 33 -3 71
-7 85 -10 136 -22 555 -22 810 1 104 9 365 47 415 59 6 2 28 6 50 10 187 36
562 148 715 213 19 8 44 19 55 23 356 150 646 313 931 525 135 101 130 97 273
221 125 108 290 270 380 373 31 36 66 75 77 88 77 84 321 420 389 534 236 400
395 777 500 1184 48 187 47 181 75 345 22 132 26 162 35 245 4 33 8 67 10 75
16 63 23 512 11 685 -13 177 -15 210 -20 245 -3 19 -8 55 -11 80 -48 371 -182
839 -340 1185 -54 118 -150 307 -179 354 -14 22 -26 43 -26 45 0 25 -268 419
-361 531 -235 282 -487 533 -699 695 -25 19 -47 37 -50 40 -30 35 -364 254
-520 341 -468 263 -1034 453 -1530 515 -30 3 -62 8 -70 9 -9 2 -49 6 -90 9
-41 4 -97 9 -125 12 -50 5 -463 13 -467 9z m502 -468 c14 -3 57 -9 95 -13 39
-4 77 -8 85 -9 86 -12 132 -20 235 -41 66 -13 129 -26 140 -28 11 -2 56 -14
100 -26 355 -95 703 -243 1015 -432 112 -68 291 -190 359 -246 318 -258 526
-469 734 -746 363 -482 622 -1085 721 -1678 38 -227 50 -389 50 -648 0 -182
-8 -359 -18 -415 -2 -11 -7 -49 -11 -85 -4 -36 -9 -74 -11 -85 -2 -11 -6 -36
-9 -55 -4 -30 -48 -243 -59 -290 -80 -325 -225 -688 -394 -985 -39 -69 -172
-280 -194 -310 -5 -5 -40 -53 -79 -105 -115 -152 -204 -255 -354 -406 -301
-303 -607 -525 -996 -724 -64 -32 -160 -77 -215 -100 -54 -23 -112 -48 -129
-55 -16 -7 -91 -34 -165 -59 -294 -99 -628 -168 -945 -193 -170 -14 -599 -7
-715 11 -14 2 -50 7 -80 11 -66 7 -116 15 -150 21 -14 3 -47 9 -75 14 -90 17
-109 21 -210 46 -278 70 -506 154 -780 289 -398 197 -702 413 -1010 720 -151
150 -180 181 -265 285 -25 30 -47 57 -50 60 -21 19 -167 225 -230 325 -257
406 -437 848 -529 1300 -21 102 -43 238 -56 335 -27 217 -27 750 0 890 2 10 6
45 10 77 17 158 87 471 145 653 203 628 543 1176 1010 1625 101 97 134 127
250 220 418 337 897 584 1410 725 113 31 260 65 325 74 23 4 52 9 65 12 25 5
131 21 200 29 19 2 76 7 125 11 50 3 92 8 93 9 6 5 535 -3 562 -8z"/>
<path d="M4890 6927 c-173 -47 -305 -144 -406 -299 -158 -242 -139 -571 46
-803 187 -235 501 -320 794 -214 87 31 167 82 242 153 l66 63 -93 76 -94 76
-45 -43 c-189 -182 -471 -178 -654 10 -74 76 -116 176 -122 290 -13 275 213
495 488 477 97 -6 247 -76 296 -137 9 -12 22 -25 28 -29 12 -7 186 125 184
140 -5 30 -117 128 -201 176 -145 83 -363 109 -529 64z"/>
<path d="M6800 5254 c-107 -19 -202 -56 -280 -108 -75 -49 -173 -158 -215
-237 -75 -144 -77 -155 -82 -526 l-5 -333 23 0 c312 -2 1302 1 1307 4 13 8 7
606 -7 666 -70 308 -317 521 -620 534 -53 3 -107 3 -121 0z m170 -240 c43 -7
137 -53 175 -85 79 -68 133 -153 155 -247 10 -42 16 -276 11 -385 -1 -16 -27
-17 -438 -15 l-438 3 1 175 c1 99 7 194 14 220 48 183 193 311 383 337 23 3
44 7 45 8 4 3 19 1 92 -11z"/>
<path d="M3650 5125 c-63 -46 -130 -94 -148 -107 -18 -13 -39 -28 -45 -33 -7
-6 -50 -37 -97 -70 -47 -32 -87 -62 -90 -65 -5 -6 -197 -142 -217 -153 -9 -6
-130 86 -163 123 -3 4 -88 77 -190 164 -102 87 -197 169 -212 182 -15 13 -30
24 -33 24 -3 0 -5 -69 -5 -154 l0 -154 58 -50 c31 -27 93 -80 137 -117 208
-175 402 -340 430 -366 18 -18 10 -19 -285 -18 -168 0 -312 0 -321 0 -13 -1
-15 -18 -15 -118 l1 -118 666 -2 666 -1 1 119 c2 117 1 119 -21 120 -12 0 -84
1 -160 1 l-138 0 -114 96 c-63 53 -112 99 -110 103 3 3 122 91 265 194 143
103 264 193 268 199 11 18 9 286 -3 285 -5 0 -62 -38 -125 -84z"/>
<path d="M4967 4687 c-84 -48 -89 -167 -10 -222 77 -54 193 -2 206 91 6 40
-23 107 -56 128 -39 26 -98 27 -140 3z"/>
</g>
</svg>
