<?xml version="1.0" standalone="no"?>
<!DOCTYPE svg PUBLIC "-//W3C//DTD SVG 20010904//EN"
 "http://www.w3.org/TR/2001/REC-SVG-20010904/DTD/svg10.dtd">
<svg version="1.0" xmlns="http://www.w3.org/2000/svg"
 width="1000.000000pt" height="1000.000000pt" viewBox="0 0 1000.000000 1000.000000"
 preserveAspectRatio="xMidYMid meet">
<metadata>
Created by potrace 1.11, written by Peter Selinger 2001-2013
</metadata>
<g transform="translate(0.000000,1000.000000) scale(0.100000,-0.100000)"
fill="#000000" stroke="none">
<path d="M4709 9686 c-2 -2 -44 -7 -94 -11 -49 -3 -103 -8 -120 -10 -16 -2
-52 -7 -80 -10 -45 -5 -183 -26 -275 -41 -117 -19 -517 -119 -575 -144 -11 -4
-63 -22 -115 -39 -52 -18 -104 -36 -115 -41 -11 -5 -56 -23 -100 -40 -107 -41
-175 -72 -330 -149 -1054 -521 -1877 -1419 -2302 -2510 -82 -211 -114 -310
-176 -551 -27 -108 -44 -182 -52 -225 -3 -16 -7 -41 -10 -55 -12 -59 -34 -200
-40 -250 -3 -30 -8 -73 -11 -95 -31 -223 -36 -670 -9 -940 3 -27 7 -75 10
-105 3 -30 8 -66 10 -80 2 -14 7 -45 9 -70 3 -25 12 -81 20 -125 9 -44 17 -91
20 -105 6 -38 14 -72 57 -245 215 -859 691 -1658 1360 -2280 36 -33 89 -80
119 -105 30 -25 61 -52 70 -60 36 -34 163 -132 281 -216 603 -432 1326 -721
2069 -829 41 -6 160 -19 280 -32 158 -16 740 -8 895 12 17 2 53 7 80 10 28 3
93 13 145 21 52 8 111 17 130 20 137 21 471 108 650 169 724 248 1356 649
1886 1195 108 111 108 111 229 255 241 287 435 584 605 924 33 66 60 122 60
125 0 2 15 37 34 78 131 286 280 781 322 1068 3 19 9 58 14 85 59 326 70 875
25 1243 -3 23 -8 63 -11 90 -3 26 -12 88 -20 137 -146 866 -513 1644 -1094
2319 -120 140 -356 373 -476 471 -26 22 -57 49 -68 59 -41 41 -317 244 -436
321 -544 354 -1155 593 -1785 699 -125 21 -217 34 -305 41 -41 4 -86 9 -100
12 -28 6 -675 14 -681 9z m451 -520 c107 -3 206 -8 220 -10 14 -3 54 -7 90
-10 36 -4 76 -8 90 -11 14 -2 43 -6 65 -10 72 -10 159 -26 230 -41 39 -8 79
-16 90 -18 11 -2 40 -9 65 -16 25 -7 52 -13 61 -15 31 -6 165 -47 269 -82 232
-78 524 -207 704 -312 49 -28 91 -51 93 -51 22 0 469 -315 548 -387 11 -10 52
-45 90 -78 87 -74 299 -286 386 -385 291 -331 567 -776 719 -1155 18 -44 38
-93 45 -110 71 -167 194 -627 221 -830 3 -27 8 -59 10 -70 2 -11 7 -51 10 -90
3 -38 8 -73 10 -76 7 -12 18 -279 18 -429 -1 -142 -10 -347 -19 -402 -2 -13
-6 -49 -10 -82 -4 -32 -8 -68 -10 -80 -2 -11 -6 -39 -10 -61 -14 -95 -39 -218
-67 -330 -16 -66 -32 -129 -34 -139 -8 -41 -96 -301 -140 -413 -50 -127 -178
-398 -239 -503 -83 -144 -289 -458 -315 -480 -3 -3 -34 -41 -68 -84 -302 -382
-715 -741 -1147 -996 -115 -67 -333 -180 -416 -215 -35 -15 -82 -35 -104 -45
-175 -78 -612 -214 -752 -234 -16 -3 -68 -12 -118 -21 -139 -25 -177 -31 -255
-40 -252 -28 -761 -28 -970 0 -14 2 -48 6 -76 9 -28 4 -61 9 -74 11 -13 3 -42
7 -65 11 -254 37 -587 131 -875 246 -1088 437 -1965 1336 -2367 2428 -112 303
-204 688 -228 950 -4 36 -8 70 -10 77 -8 25 -18 256 -18 408 0 145 8 342 18
420 2 17 7 55 10 85 40 353 165 825 291 1098 13 29 24 55 24 59 0 4 34 76 75
160 327 668 823 1234 1447 1651 377 253 832 457 1265 568 73 18 146 36 163 39
17 3 61 12 99 20 112 23 217 39 341 51 30 3 66 7 80 9 13 3 87 7 165 11 77 4
141 8 143 9 2 2 11 1 20 -1 9 -1 105 -5 212 -8z"/>
<path d="M4915 7133 c-266 -56 -488 -243 -584 -491 -32 -83 -35 -96 -47 -188
-42 -332 142 -656 457 -803 315 -146 694 -72 929 183 81 88 86 71 -64 186
l-134 102 -64 -65 c-64 -63 -157 -119 -223 -133 -39 -8 -171 -8 -210 0 -94 20
-218 108 -274 194 -53 84 -71 150 -68 261 2 90 5 104 40 173 48 97 116 167
210 212 85 42 109 47 202 46 142 -1 262 -61 357 -177 l26 -32 123 95 c68 53
130 99 138 104 40 22 -171 213 -304 274 -156 72 -347 94 -510 59z"/>
<path d="M6880 5315 c-242 -56 -439 -216 -540 -439 -61 -135 -63 -148 -67
-563 -4 -313 -2 -383 9 -384 14 0 1495 0 1516 1 20 0 16 680 -4 780 -63 304
-281 525 -598 607 -45 12 -263 10 -316 -2z m239 -340 c114 -15 254 -121 305
-229 39 -83 47 -136 44 -311 l-3 -160 -425 0 -425 0 -2 178 c-2 188 2 212 50
307 32 64 119 145 193 180 60 29 156 50 199 44 11 -1 40 -5 64 -9z"/>
<path d="M2190 4987 l0 -233 141 -110 c78 -60 162 -126 188 -147 25 -20 83
-66 129 -101 46 -35 79 -66 75 -68 -4 -3 -126 -4 -271 -3 l-262 1 2 -175 3
-174 745 1 c410 0 754 1 766 1 21 1 21 5 22 174 l1 173 -271 -1 -270 -1 44 38
c24 20 81 65 125 100 45 35 147 115 227 178 l146 114 0 234 c0 225 -1 233 -18
220 -11 -7 -175 -137 -366 -288 -191 -151 -356 -281 -366 -288 -17 -13 -41 3
-262 177 -134 106 -250 197 -258 204 -8 7 -47 37 -85 67 -39 30 -72 57 -75 60
-8 8 -84 65 -97 74 -10 6 -13 -42 -13 -227z"/>
<path d="M4990 4724 c-52 -19 -82 -39 -104 -67 -30 -40 -39 -69 -38 -124 4
-156 199 -237 314 -130 118 110 51 310 -109 322 -26 2 -55 2 -63 -1z"/>
</g>
</svg>
