<svg data-name="Layer 1" xmlns="http://www.w3.org/2000/svg" viewBox="0 0 67.51 67.51">
  <circle cx="33.75" cy="33.75" r="27.73"/>
  <path d="M29.54,25.22a4.68,4.68,0,0,1,4.71-4.64A4.73,4.73,0,0,1,38,22.38l-1.26,1a3.13,3.13,0,0,0-2.46-1.21,3.09,3.09,0,0,0,0,6.18,3.12,3.12,0,0,0,2.46-1.21l1.26,1a4.73,4.73,0,0,1-3.72,1.8A4.68,4.68,0,0,1,29.54,25.22Z"/>
  <path d="M21.85,36.94l1.55,1.32h2.17v1.62h-9V38.26H20.9l-4.35-3.69V32.43l4,3.43,5-3.59v2Z"/>
  <path d="M46.45,32A4.55,4.55,0,0,1,51,36.53v3.65h-9V36.54A4.55,4.55,0,0,1,46.45,32Zm0,1.62a3,3,0,0,0-3,3v2h5.92v-2A3,3,0,0,0,46.45,33.58Z"/>
  <circle cx="33.97" cy="36.63" r="0.9"/>
</svg>
