<svg version="1.1" id="Layer_1" xmlns="http://www.w3.org/2000/svg" xmlns:xlink="http://www.w3.org/1999/xlink" x="0px" y="0px"
	 viewBox="0 0 54 54" style="enable-background:new 0 0 54 54;" xml:space="preserve">
<path d="M27,52.8C12.7,52.8,1.1,41.2,1.1,27C1.1,12.8,12.7,1.2,27,1.2S52.9,12.8,52.9,27C52.9,41.2,41.3,52.8,27,52.8z M27,4C14.3,4,3.9,14.3,3.9,27c0,12.7,10.4,23,23.1,23s23.1-10.3,23.1-23C50.1,14.3,39.7,4,27,4z M27.4,23.8c-2.4,0-4.4-1.9-4.4-4.3 s2-4.3,4.4-4.3c1.4,0,2.6,0.6,3.5,1.7l0.2,0.2l-1.5,1.1L29.4,18c-0.5-0.6-1.2-1-2-1c-1.4,0-2.5,1.1-2.5,2.5c0,1.4,1.1,2.5,2.5,2.5 c0.8,0,1.5-0.4,2-1l0.1-0.2l1.5,1.1l-0.2,0.2C30.1,23.2,28.8,23.8,27.4,23.8z M42.5,32.9H34v-3.4c0-2.4,1.9-4.3,4.2-4.3 s4.2,1.9,4.2,4.3V32.9z M35.8,31h4.8v-1.5c0-1.3-1.1-2.4-2.4-2.4s-2.4,1.1-2.4,2.4V31z M27.2,30.6c-0.6,0-1-0.5-1-1s0.5-1,1-1 s1,0.5,1,1S27.8,30.6,27.2,30.6z M20,28.3l0-2.5l-4.2,3.3l-4.2-3.4v2.6l3,2.4h-3v1.9H20v-1.9h-3L20,28.3z"/>
</svg>
